<svg fill="none" height="24" viewBox="0 0 24 24" width="24" xmlns="http://www.w3.org/2000/svg"><g fill="#c5c7d3"><path d="m23.2495 0h-22.499363c-.198881 0-.389663.0790993-.53035.219787-.1406876.140687-.219787.331469-.219787.53035v14.999763c0 .1989.0790994.3896.219787.5303.140687.1407.331469.2196.53035.2196h9.925263l-3.81828 6.3642c-.13786.2298-.14276.5157-.01262.75.12995.2343.37497.3814.64298.3859.268.0045.51791-.1341.6558-.3639l3.85692-6.4283 3.8569 6.4283c.1378.2298.3878.3684.6558.3639s.513-.1516.643-.3859c.1301-.2343.1252-.5202-.0127-.75l-3.8182-6.3642h9.9252c.1989 0 .3897-.0789.5304-.2196s.2198-.3314.2198-.5303v-14.999763c0-.198881-.0791-.389663-.2198-.53035-.1407-.1406877-.3315-.219787-.5304-.219787zm-.7499 14.9997h-20.9995v-13.49977h20.9995z"/><path d="m5.25001 5.99991h13.49979c.268 0 .5155-.14295.6496-.37497.1339-.23203.1339-.51792 0-.74997-.1341-.23203-.3816-.37497-.6496-.37497h-13.49979c-.268 0-.51545.14294-.64958.37497-.13391.23203-.13391.51791 0 .74997.13409.23202.38157.37497.64958.37497z"/><path d="m5.25001 8.99991h13.49979c.268 0 .5155-.14295.6496-.37497.1339-.23203.1339-.51792 0-.74997-.1341-.23203-.3816-.37497-.6496-.37497h-13.49979c-.268 0-.51545.14294-.64958.37497-.13391.23203-.13391.51791 0 .74997.13409.23202.38157.37497.64958.37497z"/><path d="m5.25001 11.9999h13.49979c.268 0 .5155-.1429.6496-.375.1339-.232.1339-.5179 0-.7499-.1341-.2321-.3816-.375-.6496-.375h-13.49979c-.268 0-.51545.1429-.64958.375-.13391.232-.13391.5179 0 .7499.13409.2321.38157.375.64958.375z"/></g></svg>