<svg fill="none" height="25" viewBox="0 0 24 25" width="24" xmlns="http://www.w3.org/2000/svg"><g fill="#fff"><path d="m23.2493.869141h-22.499171c-.198879 0-.389659.079098-.530345.219779-.1406855.14069-.219784.33147-.219784.53035v14.99953c0 .1989.0790985.3897.219784.5304.140686.1407.331466.2196.530345.2196h9.925171l-3.81826 6.3641c-.13786.2298-.14275.5157-.01262.75.12995.2343.37497.3813.64297.3859.26801.0045.51791-.1341.6558-.3639l3.85681-6.4282 3.8569 6.4282c.1379.2298.3878.3684.6558.3639.268-.0046.513-.1516.643-.3859.1301-.2343.1252-.5202-.0127-.75l-3.8182-6.3641h9.9252c.1988 0 .3896-.0789.5303-.2196s.2198-.3315.2198-.5304v-14.99953c0-.19888-.0791-.38966-.2198-.53035-.1407-.140681-.3315-.219779-.5303-.219779zm-.75 14.999559h-20.99922v-13.49965h20.99922z"/><path d="m5.25 6.86903h13.4997c.268 0 .5154-.14294.6495-.37497.134-.23202.134-.5179 0-.74995-.134-.23203-.3815-.37497-.6495-.37497h-13.4997c-.268 0-.51544.14294-.64957.37497-.13391.23202-.13391.5179 0 .74995.13409.23203.38156.37497.64957.37497z"/><path d="m5.25 9.86903h13.4997c.268 0 .5154-.14294.6495-.37497.134-.23202.134-.5179 0-.74995-.134-.23203-.3815-.37497-.6495-.37497h-13.4997c-.268 0-.51544.14294-.64957.37497-.13391.23202-.13391.5179 0 .74995.13409.23203.38156.37497.64957.37497z"/><path d="m5.25 12.869h13.4997c.268 0 .5154-.1429.6495-.3749.134-.2321.134-.5179 0-.75-.134-.232-.3815-.375-.6495-.375h-13.4997c-.268 0-.51544.143-.64957.375-.13391.232-.13391.5179 0 .75.13409.232.38156.3749.64957.3749z"/></g></svg>