<svg fill="none" height="24" viewBox="0 0 25 24" width="25" xmlns="http://www.w3.org/2000/svg"><g fill="#c5c7d3"><path d="m23.0502 7.89782v1.16159 2.87929 3.6954 3.6043 2.6065.6549.1117.039c0 .0546-.0337.0572.0078-.0494-.0078.0208-.0104.0468-.0156.0676-.0052.0156-.0441.1221-.0052.0286.039-.091-.0052.0026-.0156.0208-.0077.0156-.0727.1065-.0129.0234.0623-.0806-.0078.0052-.0208.0182-.0104.0103-.0468.0363-.0494.0467.0208-.0597.0987-.0649.0364-.0312-.0182.0104-.0416.0234-.0598.0338-.0936.0598.0988-.0182.0286-.0104-.026.0026-.0598.0156-.0832.0234-.0987.0312.104-.0026.0338-.0026-.2884-.0026-.5795.0026-.868.0026h-2.1932-3.1444-3.6589-3.77591-3.45365-2.70522-1.53062-.14813-.03638-.00779-.03639c-.11953.0026.12734.0338.0156.0026-.02079-.0052-.04418-.013-.06757-.0182-.11175-.026.08836.0546.02858.013-.01819-.013-.03898-.0234-.05976-.0338-.08056-.0441 0-.0441.02338.0234-.00519-.0156-.07795-.0909-.09614-.0961.06496.0234.06496.1013.02338.0234-.00779-.0156-.02598-.065-.04158-.0754.05457.0364.03898.1169.0156.026-.0052-.0182-.0104-.0754-.02079-.0858.03118.0286.01039.1404.00779.013v-.0078-.1221-1.8113-3.2405-3.7655-3.386-2.09716-.29105l-.584712.58471h.615892 1.67873 2.48175 3.02745 3.31589 3.3341 3.121 2.6377 1.897c.2988 0 .5977.0052.8965 0h.039c.3066 0 .5977-.26766.5847-.58471s-.2572-.58472-.5847-.58472h-.6159-1.6787-2.4818-3.0274-3.3159-3.33409-3.12102-2.63766-1.89703c-.29885 0-.597688-.00519-.896532 0h-.03898c-.309241.0052-.579488.27286-.579488.5899v1.1824 2.91573 3.7265 3.6147 2.5779.6132.0858c.0129935.6159.428778 1.1954 1.04465 1.3357.35082.0806.7458.0416 1.10186.0416h2.18808 3.15737 3.69534 3.7992 3.4693 2.713 1.4994c.2027 0 .408 0 .6029-.0702.5613-.2027.933-.7068.9459-1.3071v-.0988-1.7515-3.2301-3.7889-3.4224-2.13609-.29106c0-.30664-.2676-.59768-.5847-.58471-.3144.01559-.5821.25987-.5821.58728z"/><path d="m23.0507 4.07672v3.33927.48075l.5847-.58472h-.6159-1.6787-2.4818-3.0274-3.3159-3.33409-3.12101-2.63766-1.89703c-.29885 0-.59769-.0052-.896534 0h-.03898c.194902.1949.389799.3898.584714.58472v-2.85596-.70684-.1923c0-.02339.0104-.12734.0026-.13773.0078.0104-.03118.14553-.0052.05198.0052-.02079.013-.04418.01819-.06757.02599-.10915-.05717.08056-.01299.02858.01559-.02078.03118-.05197.04158-.07276.03378-.06236.02858.0156-.03119.03639.0078-.0026.03639-.03898.04678-.04938.0026-.0026.04678-.03638.04938-.04678-.07536.05457-.08576.06497-.03638.03119.01039-.0052.01819-.013.02858-.01819.01559-.0078.11694-.05457.02079-.0156-.09615.03898.01039 0 .02859-.00519.02078-.0052.04937-.0078.06756-.01559-.10654.04157-.10394.00779-.04937.00779h.03898.08315 1.32791 2.60905 3.41725 3.80963 3.7499 3.238 2.305c.304 0 .6107-.0052.9173 0h.0026.0182c.0988.0026.0156.03119-.0312-.00779.013.01039.117.04157.1352.03638-.0702.01559-.1066-.05977-.0312-.0078.013.0078.0597.04418.0727.04418-.0156 0-.1039-.09615-.0389-.02859.0156.01559.0311.03379.0467.04678.0832.07536-.0493-.09096-.0182-.02599.0104.02079.0234.03898.0364.05717.0494.07796-.0234.03378-.0078-.03118-.0026.00779.0208.06237.0208.06496.0026.0052.0078.05977.0156.06757-.0026-.02858-.0078-.05717-.0104-.08576-.0026.03119 0 .05458 0 .07796.0078.30665.2651.6003.5847.58472.3119-.01299.5925-.25727.5847-.58472-.0181-.78481-.6444-1.37471-1.424-1.37727h-.4236-1.9698-3.056-3.7213-3.90059-3.60437-2.85852-1.65536c-.07536 0-.15072-.0026-.22608 0-.63927.01299-1.242184.46516-1.3487208 1.11483-.02858525.17151-.02858537.33003-.02858537.49894v3.29769.28585c0 .31704.26766217.58472.58471517.58472h.615891 1.67873 2.48175 3.02745 3.31589 3.3341 3.121 2.6377 1.897c.2988 0 .5977.0052.8965 0h.039c.317 0 .5847-.26766.5847-.58472v-3.33926-.48075c0-.30664-.2676-.59769-.5847-.58471-.3144.01559-.5821.25727-.5821.58471z"/><path d="m6.98279 1.1717v2.11272c.1949-.1949.3898-.3898.58471-.58471h-2.72599-.3924c.1949.1949.3898.3898.58472.58471v-2.03474-.07796c-.0052-.10395-.03898.11175-.0052.01559.0052-.01299.01299-.03638.01559-.04937.0026-.05457-.01299.05717-.02598.06236.00779-.00259.01819-.03638.02598-.04417.04938-.04418-.05457.05457-.04158.05197.0052-.0026.03898-.03898.04678-.04937.05457-.06237-.02079.03378-.03898.02858.0052.0026.03638-.02339.04418-.02599.06496-.03118-.11954.02859-.04678.0182.02339-.0026.14033-.03119.03898-.0156-.08836.0156-.02079.0052.0052.0052h.13253 1.24218.51715c.01039.0026.02339.0026.03898.0026.02079 0 .08056.01039-.0078-.0052-.13513-.02079.14033.05198.01819.0052-.08056-.03119-.02858-.0104-.01039 0 .07016.04158-.03119-.01559-.03638-.03378.00259.00779.04677.04417.04937.04677.06237.05457-.03378-.02079-.02858-.03898-.0026.0078.02339.03379.02598.04418.0156.07017-.02598-.11954-.01819-.04678.0026.02079.0104.04678.01819.06497.02339.05198-.01299-.14812-.01039-.03638.01039.30664.26246.6003.58471.58471.30925-.01299.59508-.25727.58472-.58471-.01559-.535344-.38201-1.042081-.92514-1.1408247-.17151-.03118403-.33263-.02858527-.50412-.02858527h-1.37728c-.11434 0-.23128-.00519757-.34562 0-.52494.03118407-1.02388.40538997-1.10965.94333697-.05977.376803-.02599.774413-.02599 1.153793v1.18502c0 .31704.26766.58472.58472.58472h2.72599.3924c.31704 0 .58471-.26767.58471-.58472v-2.11272c0-.306641-.26766-.597687-.58471-.584715-.31444.015592-.58472.25727-.58472.584715z"/><path d="m19.1837 1.1717v2.11272c.1949-.1949.3898-.3898.5847-.58471h-2.726-.3924c.1949.1949.3898.3898.5848.58471v-2.03474-.07796c-.0052-.10395-.039.11175-.0052.01559.0052-.01299.013-.03638.0155-.04937.0026-.05457-.0129.05717-.0259.06236.0078-.00259.0182-.03638.0259-.04417.0494-.04418-.0545.05457-.0415.05197.0052-.0026.039-.03898.0467-.04937.0546-.06237-.0207.03378-.0389.02858.0052.0026.0363-.02339.0441-.02599.065-.03118-.1195.02859-.0467.0182.0234-.0026.1403-.03119.0389-.0156-.0883.0156-.0207.0052.0052.0052h.1326 1.2422.5171c.0104.0026.0234.0026.039.0026.0208 0 .0805.01039-.0078-.0052-.1351-.02079.1403.05198.0182.0052-.0806-.03119-.0286-.0104-.0104 0 .0702.04158-.0312-.01559-.0364-.03378.0026.00779.0468.04417.0494.04677.0623.05457-.0338-.02079-.0286-.03898-.0026.0078.0234.03379.026.04418.0156.07017-.026-.11954-.0182-.04678.0026.02079.0104.04678.0182.06497.0234.05198-.013-.14812-.0104-.03638.0104.30664.2625.6003.5847.58471.3092-.01299.5951-.25727.5847-.58471-.0156-.535344-.382-1.042081-.9251-1.1408247-.1715-.03118403-.3327-.02858527-.5041-.02858527h-1.3773c-.1144 0-.2313-.00519757-.3456 0-.525.02858527-1.0239.40279497-1.1097.94333697-.0598.376803-.026.774413-.026 1.153793v1.18502c0 .31704.2677.58472.5847.58472h2.726.3924c.3171 0 .5847-.26767.5847-.58472v-2.11272c0-.306641-.2676-.597687-.5847-.584715-.3144.015592-.5847.25727-.5847.584715z"/><path d="m6.82695 12.6909c0 .0364-.0026.0728-.0052.1091 0 .013-.0026.0234-.0026.0364-.00779.065-.0052.0468.0078-.0494-.03119.0468-.03119.1482-.04938.2053-.01039.0286-.03118.0676-.03638.0988.0104-.026.02079-.052.03118-.0754l-.03118.0624c-.03118.0598-.07017.1169-.10655.1741-.06756.104.09096-.1013.0078-.0104-.02339.026-.04418.052-.06757.0754s-.04937.0467-.07276.0701c-.00779.0078-.01819.0156-.02598.0234-.04678.039-.03379.0286.03898-.0286-.04678.0156-.09875.0676-.14293.0936-.02858.0182-.05977.0312-.09096.0494-.05716.026-.04157.0208.04418-.0182-.02079.0078-.04418.0156-.06497.0234-.06756.0234-.13513.0363-.20269.0545-.09355.0234.03638-.0052.04938-.0052-.03119-.0052-.07536.0078-.10655.0104-.07276.0026-.14553 0-.21829-.0052-.12734-.0078.13773.0312.01559 0-.04418-.0104-.09095-.0208-.13513-.0337-.02859-.0078-.05457-.0182-.08316-.026-.07536-.026-.03378-.0494.02859.013-.03898-.0416-.12994-.0676-.17931-.0988-.02599-.0156-.05717-.0468-.08316-.0572.02079.0156.04418.0338.06497.0494-.01819-.013-.03378-.0286-.05198-.0442-.05197-.0467-.09615-.0961-.14292-.1455-.08316-.0883.07536.1144.00779.0104-.01819-.0286-.03898-.0572-.05717-.0857-.01819-.0286-.03378-.0598-.04937-.0884-.0052-.0104-.0104-.0208-.01559-.0312-.02599-.0572-.02079-.0416.01819.0442-.0078-.0598-.04418-.1221-.05977-.1819-.0078-.0286-.013-.0572-.02079-.0858-.0104-.0623-.0104-.0467.0052.0494-.0026-.0234-.0052-.0468-.0078-.0702-.0052-.0727-.0052-.1455 0-.2182 0-.013.0026-.0234.0026-.0364.00779-.065.0052-.0468-.0078.0493.013-.0181.013-.0623.01819-.0857.0156-.0624.03638-.1221.05457-.1845.03898-.117-.06496.1221-.00519.013.02078-.039.04157-.0806.06496-.1196.01819-.0285.03638-.0571.05717-.0857.06757-.104-.09095.1013-.00779.0104.03898-.0416.07536-.0832.11693-.1222.02079-.0181.06237-.0441.07796-.0675-.02079.0156-.04417.0338-.06496.0494l.05457-.039c.05717-.039.16111-.0676.20789-.117-.05198.052-.10655.039-.04418.0182.03379-.0104.06497-.0234.09875-.0338s.06757-.0181.10135-.0259c.06497-.013.12214.0103-.01559-.0026.07016.0052.14552-.013.21569-.0104.03638 0 .07276.0052.10914.0078.11175.0078-.13253-.0286-.01559 0 .08056.0207.15592.0415.23388.0675.11694.039-.12213-.0649-.01299-.0052.03898.0208.08056.0416.11954.065.01819.013.03898.0234.05717.0364l.05457.039c-.07276-.0572-.08576-.0676-.03898-.0286.05977.0545.11434.1091.16891.1689.08316.0883-.07536-.1144-.0078-.0104.02599.039.04938.0753.07277.1143.01039.0208.02338.039.03378.0598l.03118.0624c-.03638-.0884-.04158-.1014-.01819-.0442.02599.0779.04678.1559.06757.2339.03118.1247-.0078-.143 0-.0156.00779.0494.01039.0987.01039.1455.0026.3066.26507.5977.58472.5847.31444-.013.58989-.2573.58471-.5847-.01039-.8887-.56651-1.6423-1.39029-1.9516-.76662-.2884-1.72032-.0286-2.24007.6029-.55873.6783-.67306 1.645-.2079 2.409.46257.7614 1.34872 1.1252 2.21408.9563.9459-.1845 1.61378-1.0733 1.62418-2.0166.0026-.3066-.27286-.5977-.58471-.5847-.31964.0156-.57949.2573-.58472.5847z"/><path d="m13.0066 12.6909c0 .0364-.0026.0728-.0052.1091 0 .013-.0026.0234-.0026.0364-.0078.065-.0052.0468.0078-.0494-.0311.0468-.0311.1482-.0493.2053-.0104.0286-.0312.0676-.0364.0988.0104-.026.0208-.052.0312-.0754l-.0312.0624c-.0312.0598-.0702.1169-.1066.1741-.0675.104.091-.1013.0078-.0104-.0234.026-.0441.052-.0675.0754s-.0494.0467-.0728.0701c-.0078.0078-.0182.0156-.026.0234-.0468.039-.0338.0286.039-.0286-.0468.0156-.0988.0676-.1429.0936-.0286.0182-.0598.0312-.091.0494-.0572.026-.0416.0208.0442-.0182-.0208.0078-.0442.0156-.065.0234-.0675.0234-.1351.0363-.2027.0545-.0935.0234.0364-.0052.0494-.0052-.0312-.0052-.0754.0078-.1065.0104-.0728.0026-.1456 0-.2183-.0052-.1274-.0078.1377.0312.0156 0-.0442-.0104-.091-.0208-.1352-.0337-.0286-.0078-.0545-.0182-.0831-.026-.0754-.026-.0338-.0494.0286.013-.039-.0416-.13-.0676-.1794-.0988-.0259-.0156-.0571-.0468-.0831-.0572.0208.0156.0442.0338.065.0494-.0182-.013-.0338-.0286-.052-.0442-.052-.0467-.0962-.0961-.1429-.1455-.0832-.0883.0753.1144.0078.0104-.0182-.0286-.039-.0572-.0572-.0857-.0182-.0286-.0338-.0598-.0494-.0884-.0052-.0104-.0104-.0208-.0156-.0312-.026-.0572-.0208-.0416.0182.0442-.0078-.0598-.0442-.1221-.0598-.1819-.0078-.0286-.013-.0572-.0208-.0858-.0103-.0623-.0103-.0467.0052.0494-.0026-.0234-.0052-.0468-.0078-.0702-.0051-.0727-.0051-.1455 0-.2182 0-.013.0026-.0234.0026-.0364.0078-.065.0052-.0468-.0077.0493.0129-.0181.0129-.0623.0181-.0857.0156-.0624.0364-.1221.0546-.1845.039-.117-.065.1221-.0052.013.0208-.039.0416-.0806.065-.1196.0182-.0285.0364-.0571.0572-.0857.0675-.104-.091.1013-.0078.0104.0389-.0416.0753-.0832.1169-.1222.0208-.0181.0624-.0441.078-.0675-.0208.0156-.0442.0338-.065.0494.0182-.013.0364-.026.0546-.039.0571-.039.1611-.0676.2078-.117-.0519.052-.1065.039-.0441.0182.0338-.0104.0649-.0234.0987-.0338s.0676-.0181.1014-.0259c.0649-.013.1221.0103-.0156-.0026.0701.0052.1455-.013.2157-.0104.0363 0 .0727.0052.1091.0078.1118.0078-.1325-.0286-.0156 0 .0806.0207.1559.0415.2339.0675.1169.039-.1221-.0649-.013-.0052.039.0208.0806.0416.1195.065.0182.013.039.0234.0572.0364l.0546.039c-.0728-.0572-.0858-.0676-.039-.0286.0598.0545.1143.1091.1689.1689.0832.0883-.0753-.1144-.0078-.0104.026.039.0494.0753.0728.1143.0104.0208.0234.039.0338.0598l.0311.0624c-.0363-.0884-.0415-.1014-.0181-.0442.0259.0779.0467.1559.0675.2339.0312.1247-.0078-.143 0-.0156.0052.0494.0104.0987.0104.1455.0026.3066.2651.5977.5847.5847.3145-.013.5899-.2573.5848-.5847-.0104-.8887-.5666-1.6423-1.3903-1.9516-.7667-.2884-1.7204-.0286-2.2401.6029-.55874.6783-.67307 1.645-.2079 2.409.4626.7614 1.3487 1.1252 2.2141.9563.9459-.1845 1.6137-1.0733 1.6242-2.0166.0025-.3066-.2729-.5977-.5848-.5847-.3196.0156-.5821.2573-.5847.5847z"/><path d="m19.1836 12.6909c0 .0364-.0026.0728-.0052.1091 0 .013-.0026.0234-.0026.0364-.0078.065-.0052.0468.0078-.0494-.0311.0468-.0311.1482-.0493.2053-.0104.0286-.0312.0676-.0364.0988.0104-.026.0208-.052.0312-.0754l-.0312.0624c-.0312.0598-.0702.1169-.1066.1741-.0675.104.091-.1013.0078-.0104-.0234.026-.0441.052-.0675.0754s-.0494.0467-.0728.0701c-.0078.0078-.0182.0156-.026.0234-.0468.039-.0338.0286.039-.0286-.0468.0156-.0988.0676-.1429.0936-.0286.0182-.0598.0312-.091.0494-.0572.026-.0416.0208.0442-.0182-.0208.0078-.0442.0156-.065.0234-.0675.0234-.1351.0363-.2027.0545-.0935.0234.0364-.0052.0494-.0052-.0312-.0052-.0754.0078-.1065.0104-.0728.0026-.1456 0-.2183-.0052-.1274-.0078.1377.0312.0156 0-.0442-.0104-.091-.0208-.1352-.0337-.0286-.0078-.0545-.0182-.0831-.026-.0754-.026-.0338-.0494.0286.013-.039-.0416-.13-.0676-.1794-.0988-.0259-.0156-.0571-.0468-.0831-.0572.0208.0156.0442.0338.065.0494-.0182-.013-.0338-.0286-.052-.0442-.052-.0467-.0962-.0961-.1429-.1455-.0832-.0883.0753.1144.0078.0104-.0182-.0286-.039-.0572-.0572-.0857-.0182-.0286-.0338-.0598-.0494-.0884l-.0156-.0312c-.026-.0572-.0208-.0416.0182.0442-.0078-.0598-.0442-.1221-.0598-.1819-.0078-.0286-.013-.0572-.0208-.0858-.0103-.0623-.0103-.0467.0052.0494-.0026-.0234-.0052-.0468-.0078-.0702-.0051-.0727-.0051-.1455 0-.2182 0-.013.0026-.0234.0026-.0364.0078-.065.0052-.0468-.0077.0493.0129-.0181.0129-.0623.0181-.0857.0156-.0624.0364-.1221.0546-.1845.039-.117-.065.1221-.0052.013.0208-.039.0416-.0806.065-.1196.0182-.0285.0364-.0571.0572-.0857.0675-.104-.091.1013-.0078.0104.0389-.0416.0753-.0832.1169-.1222.0208-.0181.0624-.0441.078-.0675-.0208.0156-.0442.0338-.065.0494l.0546-.039c.0571-.039.1611-.0676.2078-.117-.0519.052-.1065.039-.0441.0182.0338-.0104.0649-.0234.0987-.0338s.0676-.0181.1014-.0259c.0649-.013.1221.0103-.0156-.0026.0701.0052.1455-.013.2157-.0104.0363 0 .0727.0052.1091.0078.1118.0078-.1325-.0286-.0156 0 .0806.0207.1559.0415.2339.0675.1169.039-.1221-.0649-.013-.0052.039.0208.0806.0416.1195.065.0182.013.039.0234.0572.0364l.0546.039c-.0728-.0572-.0858-.0676-.039-.0286.0598.0545.1143.1091.1689.1689.0832.0883-.0753-.1144-.0078-.0104.026.039.0494.0753.0728.1143.0104.0208.0234.039.0338.0598l.0312.0624c-.0364-.0884-.0416-.1014-.0182-.0442.0259.0779.0467.1559.0675.2339.0312.1247-.0078-.143 0-.0156.0078.0494.0104.0987.0104.1455.0026.3066.2651.5977.5847.5847.3145-.013.5899-.2573.5848-.5847-.0104-.8887-.5666-1.6423-1.3903-1.9516-.7667-.2884-1.7204-.0286-2.2401.6029-.5587.6783-.6731 1.645-.2079 2.409.4626.7614 1.3487 1.1252 2.2141.9563.9459-.1845 1.6137-1.0733 1.6242-2.0166.0026-.3066-.2729-.5977-.5848-.5847-.3196.0156-.5795.2573-.5847.5847z"/><path d="m6.82695 18.6167c0 .0364-.0026.0727-.0052.1091 0 .013-.0026.0234-.0026.0364-.00779.065-.0052.0468.0078-.0494-.03119.0468-.03119.1481-.04938.2053-.01039.0286-.03118.0676-.03638.0988.0104-.026.02079-.052.03118-.0754l-.03118.0624c-.03118.0597-.07017.1169-.10655.1741-.06756.1039.09096-.1014.0078-.0104-.02339.026-.04418.052-.06757.0754-.02339.0233-.04937.0467-.07276.0701-.00779.0078-.01819.0156-.02598.0234-.04678.039-.03379.0286.03898-.0286-.04678.0156-.09875.0676-.14293.0936-.02858.0182-.05977.0312-.09096.0494-.05716.0259-.04157.0207.04418-.0182-.02079.0078-.04418.0156-.06497.0234-.06756.0233-.13513.0363-.20269.0545-.09355.0234.03638-.0052.04938-.0052-.03119-.0052-.07536.0078-.10655.0104-.07276.0026-.14553 0-.21829-.0052-.12734-.0078.13773.0312.01559 0-.04418-.0104-.09095-.0208-.13513-.0338-.02859-.0078-.05457-.0182-.08316-.0259-.07536-.026-.03378-.0494.02859.0129-.03898-.0415-.12994-.0675-.17931-.0987-.02599-.0156-.05717-.0468-.08316-.0572.02079.0156.04418.0338.06497.0494-.01819-.013-.03378-.0286-.05198-.0442-.05197-.0468-.09615-.0961-.14292-.1455-.08316-.0884.07536.1143.00779.0104-.01819-.0286-.03898-.0572-.05717-.0858-.01819-.0285-.03378-.0597-.04937-.0883-.0052-.0104-.0104-.0208-.01559-.0312-.02599-.0572-.02079-.0416.01819.0442-.0078-.0598-.04418-.1222-.05977-.1819-.0078-.0286-.013-.0572-.02079-.0858-.0104-.0624-.0104-.0468.0052.0494-.0026-.0234-.0052-.0468-.0078-.0702-.0052-.0727-.0052-.1455 0-.2183 0-.013.0026-.0234.0026-.0363.00779-.065.0052-.0468-.0078.0493.013-.0182.013-.0623.01819-.0857.0156-.0624.03638-.1222.05457-.1845.03898-.117-.06496.1221-.00519.013.02078-.039.04157-.0806.06496-.1196.01819-.0286.03638-.0571.05717-.0857.06757-.104-.09095.1013-.00779.0104.03898-.0416.07536-.0832.11693-.1222.02079-.0182.06237-.0442.07796-.0675-.02079.0155-.04417.0337-.06496.0493.01819-.013.03638-.026.05457-.0389.05717-.039.16111-.0676.20789-.117-.05198.052-.10655.039-.04418.0182.03379-.0104.06497-.0234.09875-.0338s.06757-.0182.10135-.026c.06497-.013.12214.0104-.01559-.0026.07016.0052.14552-.013.21569-.0104.03638 0 .07276.0052.10914.0078.11175.0078-.13253-.0285-.01559 0 .08056.0208.15592.0416.23388.0676.11694.039-.12213-.065-.01299-.0052.03898.0208.08056.0416.11954.065.01819.013.03898.0234.05717.0364.01819.0129.03638.0259.05457.0389-.07276-.0571-.08576-.0675-.03898-.0285.05977.0545.11434.1091.16891.1689.08316.0883-.07536-.1144-.0078-.0104.02599.039.04938.0753.07277.1143.01039.0208.02338.039.03378.0598l.03118.0623c-.03638-.0883-.04158-.1013-.01819-.0441.02599.0779.04678.1559.06757.2339.03118.1247-.0078-.143 0-.0156.00779.0493.01039.0987.01039.1455.0026.3066.26507.5977.58472.5847.31444-.013.58989-.2573.58471-.5847-.01039-.8888-.56651-1.6424-1.39029-1.9516-.76662-.2885-1.72032-.0286-2.24007.6029-.55873.6782-.67306 1.645-.2079 2.409.46257.7614 1.34872 1.1252 2.21408.9563.9459-.1845 1.61378-1.0733 1.62418-2.0166.0026-.3067-.27286-.5977-.58471-.5847-.31964.0156-.57949.2572-.58472.5847z"/><path d="m13.0066 18.6167c0 .0364-.0026.0727-.0052.1091 0 .013-.0026.0234-.0026.0364-.0078.065-.0052.0468.0078-.0494-.0311.0468-.0311.1481-.0493.2053-.0104.0286-.0312.0676-.0364.0988.0104-.026.0208-.052.0312-.0754l-.0312.0624c-.0312.0597-.0702.1169-.1066.1741-.0675.1039.091-.1014.0078-.0104-.0234.026-.0441.052-.0675.0754-.0234.0233-.0494.0467-.0728.0701-.0078.0078-.0182.0156-.026.0234-.0468.039-.0338.0286.039-.0286-.0468.0156-.0988.0676-.1429.0936-.0286.0182-.0598.0312-.091.0494-.0572.0259-.0416.0207.0442-.0182-.0208.0078-.0442.0156-.065.0234-.0675.0233-.1351.0363-.2027.0545-.0935.0234.0364-.0052.0494-.0052-.0312-.0052-.0754.0078-.1065.0104-.0728.0026-.1456 0-.2183-.0052-.1274-.0078.1377.0312.0156 0-.0442-.0104-.091-.0208-.1352-.0338-.0286-.0078-.0545-.0182-.0831-.0259-.0754-.026-.0338-.0494.0286.0129-.039-.0415-.13-.0675-.1794-.0987-.0259-.0156-.0571-.0468-.0831-.0572.0208.0156.0442.0338.065.0494-.0182-.013-.0338-.0286-.052-.0442-.052-.0468-.0962-.0961-.1429-.1455-.0832-.0884.0753.1143.0078.0104-.0182-.0286-.039-.0572-.0572-.0858-.0182-.0285-.0338-.0597-.0494-.0883-.0052-.0104-.0104-.0208-.0156-.0312-.026-.0572-.0208-.0416.0182.0442-.0078-.0598-.0442-.1222-.0598-.1819-.0078-.0286-.013-.0572-.0208-.0858-.0103-.0624-.0103-.0468.0052.0494-.0026-.0234-.0052-.0468-.0078-.0702-.0051-.0727-.0051-.1455 0-.2183 0-.013.0026-.0234.0026-.0363.0078-.065.0052-.0468-.0077.0493.0129-.0182.0129-.0623.0181-.0857.0156-.0624.0364-.1222.0546-.1845.039-.117-.065.1221-.0052.013.0208-.039.0416-.0806.065-.1196.0182-.0286.0364-.0571.0572-.0857.0675-.104-.091.1013-.0078.0104.0389-.0416.0753-.0832.1169-.1222.0208-.0182.0624-.0442.078-.0675-.0208.0155-.0442.0337-.065.0493.0182-.013.0364-.026.0546-.0389.0571-.039.1611-.0676.2078-.117-.0519.052-.1065.039-.0441.0182.0338-.0104.0649-.0234.0987-.0338s.0676-.0182.1014-.026c.0649-.013.1221.0104-.0156-.0026.0701.0052.1455-.013.2157-.0104.0363 0 .0727.0052.1091.0078.1118.0078-.1325-.0285-.0156 0 .0806.0208.1559.0416.2339.0676.1169.039-.1221-.065-.013-.0052.039.0208.0806.0416.1195.065.0182.013.039.0234.0572.0364.0182.0129.0364.0259.0546.0389-.0728-.0571-.0858-.0675-.039-.0285.0598.0545.1143.1091.1689.1689.0832.0883-.0753-.1144-.0078-.0104.026.039.0494.0753.0728.1143.0104.0208.0234.039.0338.0598l.0311.0623c-.0363-.0883-.0415-.1013-.0181-.0441.0259.0779.0467.1559.0675.2339.0312.1247-.0078-.143 0-.0156.0052.0493.0104.0987.0104.1455.0026.3066.2651.5977.5847.5847.3145-.013.5899-.2573.5848-.5847-.0104-.8888-.5666-1.6424-1.3903-1.9516-.7667-.2885-1.7204-.0286-2.2401.6029-.55874.6782-.67307 1.645-.2079 2.409.4626.7614 1.3487 1.1252 2.2141.9563.9459-.1845 1.6137-1.0733 1.6242-2.0166.0025-.3067-.2729-.5977-.5848-.5847-.3196.0156-.5821.2572-.5847.5847z"/><path d="m19.1836 18.6167c0 .0364-.0026.0727-.0052.1091 0 .013-.0026.0234-.0026.0364-.0078.065-.0052.0468.0078-.0494-.0311.0468-.0311.1481-.0493.2053-.0104.0286-.0312.0676-.0364.0988.0104-.026.0208-.052.0312-.0754l-.0312.0624c-.0312.0597-.0702.1169-.1066.1741-.0675.1039.091-.1014.0078-.0104-.0234.026-.0441.052-.0675.0754-.0234.0233-.0494.0467-.0728.0701-.0078.0078-.0182.0156-.026.0234-.0468.039-.0338.0286.039-.0286-.0468.0156-.0988.0676-.1429.0936-.0286.0182-.0598.0312-.091.0494-.0572.0259-.0416.0207.0442-.0182-.0208.0078-.0442.0156-.065.0234-.0675.0233-.1351.0363-.2027.0545-.0935.0234.0364-.0052.0494-.0052-.0312-.0052-.0754.0078-.1065.0104-.0728.0026-.1456 0-.2183-.0052-.1274-.0078.1377.0312.0156 0-.0442-.0104-.091-.0208-.1352-.0338-.0286-.0078-.0545-.0182-.0831-.0259-.0754-.026-.0338-.0494.0286.0129-.039-.0415-.13-.0675-.1794-.0987-.0259-.0156-.0571-.0468-.0831-.0572.0208.0156.0442.0338.065.0494-.0182-.013-.0338-.0286-.052-.0442-.052-.0468-.0962-.0961-.1429-.1455-.0832-.0884.0753.1143.0078.0104-.0182-.0286-.039-.0572-.0572-.0858-.0182-.0285-.0338-.0597-.0494-.0883l-.0156-.0312c-.026-.0572-.0208-.0416.0182.0442-.0078-.0598-.0442-.1222-.0598-.1819-.0078-.0286-.013-.0572-.0208-.0858-.0103-.0624-.0103-.0468.0052.0494-.0026-.0234-.0052-.0468-.0078-.0702-.0051-.0727-.0051-.1455 0-.2183 0-.013.0026-.0234.0026-.0363.0078-.065.0052-.0468-.0077.0493.0129-.0182.0129-.0623.0181-.0857.0156-.0624.0364-.1222.0546-.1845.039-.117-.065.1221-.0052.013.0208-.039.0416-.0806.065-.1196.0182-.0286.0364-.0571.0572-.0857.0675-.104-.091.1013-.0078.0104.0389-.0416.0753-.0832.1169-.1222.0208-.0182.0624-.0442.078-.0675-.0208.0155-.0442.0337-.065.0493.0182-.013.0364-.026.0546-.0389.0571-.039.1611-.0676.2078-.117-.0519.052-.1065.039-.0441.0182.0338-.0104.0649-.0234.0987-.0338s.0676-.0182.1014-.026c.0649-.013.1221.0104-.0156-.0026.0701.0052.1455-.013.2157-.0104.0363 0 .0727.0052.1091.0078.1118.0078-.1325-.0285-.0156 0 .0806.0208.1559.0416.2339.0676.1169.039-.1221-.065-.013-.0052.039.0208.0806.0416.1195.065.0182.013.039.0234.0572.0364.0182.0129.0364.0259.0546.0389-.0728-.0571-.0858-.0675-.039-.0285.0598.0545.1143.1091.1689.1689.0832.0883-.0753-.1144-.0078-.0104.026.039.0494.0753.0728.1143.0104.0208.0234.039.0338.0598l.0312.0623c-.0364-.0883-.0416-.1013-.0182-.0441.0259.0779.0467.1559.0675.2339.0312.1247-.0078-.143 0-.0156.0078.0493.0104.0987.0104.1455.0026.3066.2651.5977.5847.5847.3145-.013.5899-.2573.5848-.5847-.0104-.8888-.5666-1.6424-1.3903-1.9516-.7667-.2885-1.7204-.0286-2.2401.6029-.5587.6782-.6731 1.645-.2079 2.409.4626.7614 1.3487 1.1252 2.2141.9563.9459-.1845 1.6137-1.0733 1.6242-2.0166.0026-.3067-.2729-.5977-.5848-.5847-.3196.0156-.5795.2572-.5847.5847z"/></g></svg>