<svg fill="none" height="20" viewBox="0 0 20 20" width="20" xmlns="http://www.w3.org/2000/svg"><path d="m19.8546.146705c-.1944-.1944206-.5096-.1944206-.7037 0l-9.1507 9.150005-9.149777-9.150894c-.194416-.1944212-.509651-.1944212-.703721 0-.1944165.194421-.1944165.509662 0 .703737l9.149798 9.150847-9.150688 9.15c-.1944161.1945-.1944161.5097 0 .7038.194417.1944.509653.1944.703723 0l9.149795-9.15 9.14977 9.15c.1944.1944.5097.1944.7038 0 .1944-.1944.1944-.5097 0-.7038l-9.1498-9.15 9.1506-9.149958c.1945-.194421.1953-.509662.0009-.703737z" fill="#c5c7d3"/></svg>