<svg fill="none" height="24" viewBox="0 0 19 24" width="19" xmlns="http://www.w3.org/2000/svg"><g fill="#c5c7d3"><path d="m16.2367 4.28583-.64 17.27517c-.0108.2964-.2721.5475-.5697.5475h-11.0545c-.29735 0-.55881-.252-.56965-.5475l-.64002-17.27517c-.01759-.47664-.41832-.84871-.89497-.83113-.47664.01783-.84871.41832-.83113.89497l.63977 17.27523c.04554 1.2239 1.06943 2.2109 2.29598 2.2109h11.05452c1.2261 0 2.2504-.9854 2.296-2.2109l.6398-17.27523c.0176-.47664-.3545-.87714-.8312-.89497-.4766-.01759-.8773.35447-.8949.83113z"/><path d="m8.80908 7.77288v11.74542c0 .3817.30917.6909.69085.6909s.69087-.3092.69087-.6909v-11.74542c0-.3817-.30919-.69085-.69087-.69085s-.69085.30916-.69085.69085z"/><path d="m5.00909 7.79318.34555 11.74542c.01133.3815.3294.6818.71083.6704.38146-.0111.68172-.3294.67037-.7108l-.34555-11.74549c-.01109-.38146-.32941-.68172-.71084-.67037-.38145.01109-.68147.32941-.67036.71084z"/><path d="m12.6095 7.75271-.3455 11.74549c-.0113.3814.2889.6998.6703.7108.3815.0113.6996-.2889.7109-.6704l.3455-11.74542c.0111-.38146-.2889-.6998-.6703-.71084-.3815-.01132-.6998.28893-.7109.67037z"/><path d="m.863636 4.6638h17.272764c.4768 0 .8636-.38652.8636-.86364 0-.47688-.3868-.86364-.8636-.86364h-17.272764c-.476881 0-.863636.38676-.863636.86364 0 .47712.386755.86364.863636.86364z"/><path d="m6.87562 3.51909.35952-1.25881c.07711-.26941.42652-.53303.70726-.53303h3.1148c.2807 0 .6301.26338.7072.53303l.3595 1.25881 1.6608-.47471-.3595-1.25857c-.2892-1.011375-1.3162-1.78581-2.368-1.78581h-3.1148c-1.05185 0-2.07908.774743-2.36803 1.78581l-.35953 1.25857z"/></g></svg>