<svg fill="none" height="125" viewBox="0 0 149 125" width="149" xmlns="http://www.w3.org/2000/svg" xmlns:xlink="http://www.w3.org/1999/xlink"><clipPath id="a"><path d="m0 0h241.68v241.68h-241.68z" transform="matrix(.707107 -.707107 -.707107 -.707107 170.894 124.787)"/></clipPath><g clip-path="url(#a)" fill="#fff"><path d="m137.919 15.2588h-2.3v-2.3h2.3z"/><path d="m137.821 32.0146h-2.09v-2.09h2.09z"/><path d="m137.703 48.7598h-1.87v-1.87h1.87z"/><path d="m124.243 15.2402h-2.3v-2.3h2.3z"/><path d="m124.145 31.9854h-2.09v-2.09h2.09z"/><path d="m124.03 48.7383h-1.87v-1.87h1.87z"/><path d="m110.56 15.2178h-2.3v-2.3h2.3z"/><path d="m110.483 31.9844h-2.09v-2.0901h2.09z"/><path d="m110.346 48.7021h-1.87v-1.8699h1.87z"/><path d="m96.9045 15.21h-2.3v-2.3h2.3z"/><path d="m96.8204 31.9834h-2.0899v-2.09h2.0899z"/><path d="m96.684 48.7012h-1.87v-1.87h1.87z"/></g></svg>