<svg fill="none" height="104" viewBox="0 0 45 104" width="45" xmlns="http://www.w3.org/2000/svg" xmlns:xlink="http://www.w3.org/1999/xlink"><filter id="a" color-interpolation-filters="sRGB" filterUnits="userSpaceOnUse" height="104" width="85.2554" x=".371094" y="0"><feFlood flood-opacity="0" result="BackgroundImageFix"/><feColorMatrix in="SourceAlpha" result="hardAlpha" type="matrix" values="0 0 0 0 0 0 0 0 0 0 0 0 0 0 0 0 0 0 127 0"/><feOffset dx="17" dy="18"/><feGaussianBlur stdDeviation="20"/><feComposite in2="hardAlpha" operator="out"/><feColorMatrix type="matrix" values="0 0 0 0 0.0784314 0 0 0 0 0.0745098 0 0 0 0 0.0745098 0 0 0 0.4 0"/><feBlend in2="BackgroundImageFix" mode="normal" result="effect1_dropShadow_463_9481"/><feBlend in="SourceGraphic" in2="effect1_dropShadow_463_9481" mode="normal" result="shape"/></filter><g fill="#c5c7d3" filter="url(#a)"><path d="m25.9987 40.7445c-1.4513 0-2.6277 1.1764-2.6277 2.6278 0 1.4513 1.1764 2.6277 2.6277 2.6277 1.4514 0 2.6278-1.1764 2.6278-2.6277 0-1.4514-1.1764-2.6278-2.6278-2.6278z"/><path d="m25.9987 31.3724c-1.4513 0-2.6277 1.1764-2.6277 2.6278 0 1.4513 1.1764 2.6277 2.6277 2.6277 1.4514 0 2.6278-1.1764 2.6278-2.6277 0-1.4514-1.1764-2.6278-2.6278-2.6278z"/><path d="m25.9987 22.0004c-1.4513 0-2.6277 1.1764-2.6277 2.6277 0 1.4514 1.1764 2.6278 2.6277 2.6278 1.4514 0 2.6278-1.1764 2.6278-2.6278 0-1.4513-1.1764-2.6277-2.6278-2.6277z"/></g></svg>