<svg width="145" height="122" viewBox="0 0 145 122" fill="none" xmlns="http://www.w3.org/2000/svg">
<g opacity="0.4" clip-path="url(#clip0_74_4328)">
<path d="M137.919 12.2588H135.62V9.9588H137.919V12.2588Z" fill="#696969"/>
<path d="M137.821 29.0146H135.731V26.9246H137.821V29.0146Z" fill="#696969"/>
<path d="M137.703 45.7598H135.833V43.8898H137.703V45.7598Z" fill="#696969"/>
<path d="M124.243 12.2402H121.943V9.94025H124.243V12.2402Z" fill="#696969"/>
<path d="M124.145 28.9854H122.055V26.8954H124.145V28.9854Z" fill="#696969"/>
<path d="M124.03 45.7383H122.16V43.8683H124.03V45.7383Z" fill="#696969"/>
<path d="M110.56 12.2178H108.26V9.91779H110.56V12.2178Z" fill="#696969"/>
<path d="M110.483 28.9844H108.393V26.8943H110.483V28.9844Z" fill="#696969"/>
<path d="M110.346 45.7021H108.476V43.8322H110.346V45.7021Z" fill="#696969"/>
<path d="M96.9045 12.21H94.6045V9.90997H96.9045V12.21Z" fill="#696969"/>
<path d="M96.8204 28.9834H94.7305V26.8934H96.8204V28.9834Z" fill="#696969"/>
<path d="M96.6841 45.7012H94.8141V43.8312H96.6841V45.7012Z" fill="#696969"/>
</g>
<defs>
<clipPath id="clip0_74_4328">
<rect width="241.68" height="241.68" fill="white" transform="matrix(0.707107 -0.707107 -0.707107 -0.707107 170.894 121.787)"/>
</clipPath>
</defs>
</svg>
