<svg fill="none" height="18" viewBox="0 0 19 18" width="19" xmlns="http://www.w3.org/2000/svg"><g clip-rule="evenodd" fill-rule="evenodd"><path d="m3.9243 8.99964c0-.58458.09941-1.14503.27684-1.6707l-3.10561-2.31624c-.605263 1.20025-.946276 2.55269-.946276 3.98694 0 1.43306.340593 2.78466.945016 3.98406l3.10394-2.3207c-.17575-.5232-.27391-1.08164-.27391-1.66336z" fill="#fbbc05"/><path d="m9.37701 3.68177c1.30029 0 2.47479.44999 3.39759 1.18635l2.6844-2.61815c-1.6358-1.39089-3.7331-2.24997-6.08199-2.24997-3.6467 0-6.78083 2.03684-8.28162 5.01293l3.10561 2.31625c.71558-2.12152 2.75536-3.64741 5.17601-3.64741z" fill="#eb4335"/><path d="m9.37701 14.3183c-2.42065 0-4.46043-1.5259-5.17601-3.6474l-3.10561 2.3158c1.50079 2.9765 4.63492 5.0134 8.28162 5.0134 2.25079 0 4.39959-.7806 6.01239-2.243l-2.9479-2.2259c-.8318.5118-1.8791.7871-3.06449.7871z" fill="#34a853"/><path d="m18.1855 8.99962c0-.53181-.0839-1.10453-.2097-1.63634h-8.59876v3.47722h4.94946c-.2474 1.1855-.9211 2.097-1.885 2.6902l2.9479 2.2258c1.6942-1.5357 2.7961-3.8233 2.7961-6.75688z" fill="#4285f4"/></g></svg>