<svg fill="none" height="24" viewBox="0 0 32 24" width="32" xmlns="http://www.w3.org/2000/svg"><path d="m1.97716 0h5.214c.46243 0 .91026.15877 1.2654.448764l1.71214 1.397056c.0711.05805.1607.08965.2531.08965h16.0642c1.0914 0 1.9765.86674 1.9765 1.93546v3.48397c0 .21385.1768.38693.3952.38693h1.5813c.862 0 1.561.68449 1.561 1.52881 0 .11935-.0141.23815-.0425.35399l-3.1335 12.88807c-.2121.8719-1.0076 1.4873-1.9228 1.4873h-24.92467c-1.091399 0-1.97653-.8667-1.97653-1.9355v-20.12877c0-1.068719.885131-1.93546051 1.97653-1.93546051zm27.82034 10.1543c.0071-.0295.0107-.0594.0107-.0897 0-.21384-.177-.38719-.3951-.38719l-22.42371.00054c-.35736 0-.67006.23464-.76322.57215l-3.12609 11.3266c-.0091.033-.01378.067-.01378.101 0 .2138.17702.3872.39541.3872h23.10769c.1828 0 .3419-.1231.3844-.2976zm-27.42504-8.21884c-.21839 0-.39541.17335-.39541.3872l-.00056 14.99704c0 .0702.04798.1313.11692.1496.0841.0224.17096-.0264.19384-.1091l2.26002-8.18766c.233-.84407 1.01502-1.43051 1.90784-1.43051h19.63539c.2184 0 .3954-.17308.3954-.38694v-3.0968c0-.21386-.177-.38721-.3954-.38721h-15.8122c-.46245 0-.91028-.1585-1.26542-.44849l-1.7121-1.39706c-.07114-.05805-.16048-.08992-.25313-.08992z" fill="#c5c7d3"/></svg>