<svg fill="none" height="21" viewBox="0 0 26 21" width="26" xmlns="http://www.w3.org/2000/svg"><path d="m1.60644.869141h4.23638c.37572 0 .73959.132309 1.02814.373969l1.39108 1.16422c.0578.04837.13061.0747.20566.0747h13.0522c.8867 0 1.6059.72229 1.6059 1.61289v2.9033c0 .17822.1436.32245.3211.32245h1.2848c.7004 0 1.2683.5704 1.2683 1.274 0 .09946-.0114.19846-.0345.295l-2.546 10.74013c-.1723.7265-.8186 1.2393-1.5623 1.2393h-20.25127c-.886761 0-1.60593-.7222-1.60593-1.6128v-16.77405c0-.8906.719682-1.613109 1.60644-1.613109zm22.60396 8.461889c.0059-.02453.0088-.04951.0088-.07471 0-.17821-.1439-.32267-.3211-.32267l-18.21922.00045c-.29036 0-.54442.19554-.62012.4768l-2.53994 9.4388c-.0074.0275-.0112.0558-.0112.0842 0 .1782.14383.3227.32127.3227h18.77501c.1485 0 .2778-.1026.3123-.248zm-22.28277-6.849c-.17745 0-.32128.14445-.32128.32266l-.00045 12.49751c0 .0586.03898.1094.09499.1247.06833.0187.13891-.022.1575-.0909l1.83627-6.82307c.18931-.70339.8247-1.1921 1.55012-1.1921h15.95372c.1775 0 .3213-.14423.3213-.32244v-2.58068c0-.17821-.1438-.32267-.3213-.32267h-12.8474c-.37572 0-.73959-.13208-1.02814-.37374l-1.39107-1.16422c-.05781-.04837-.13039-.07493-.20567-.07493z" fill="#fff"/></svg>