<svg fill="none" height="180" viewBox="0 0 180 180" width="180" xmlns="http://www.w3.org/2000/svg" xmlns:xlink="http://www.w3.org/1999/xlink"><linearGradient id="a" gradientUnits="userSpaceOnUse" x1="190.752" x2="59.2094" y1="202.394" y2="59.3845"><stop offset="0" stop-color="#4481eb" stop-opacity=".58"/><stop offset="1" stop-color="#04befe" stop-opacity=".43"/></linearGradient><linearGradient id="b" gradientUnits="userSpaceOnUse" x1="168.458" x2="77.9837" y1="63.0515" y2="119.866"><stop offset="0" stop-color="#dae3fe"/><stop offset="1" stop-color="#e9effd"/></linearGradient><linearGradient id="c"><stop offset="0" stop-color="#fe7062"/><stop offset="1" stop-color="#ff928e"/></linearGradient><linearGradient id="d" gradientUnits="userSpaceOnUse" x1="49.8525" x2="206.035" xlink:href="#c" y1="141.842" y2="-90.7389"/><linearGradient id="e" gradientUnits="userSpaceOnUse" x1="85.2996" x2="104.124" y1="168.978" y2="-63.7118"><stop offset="0" stop-color="#ffc2c2"/><stop offset="1" stop-color="#ff928e"/></linearGradient><linearGradient id="f" gradientUnits="userSpaceOnUse" x1="31.0924" x2="110.274" xlink:href="#c" y1="134.14" y2="34.0229"/><linearGradient id="g" gradientUnits="userSpaceOnUse" x1="31.2865" x2="110.468" xlink:href="#c" y1="114.707" y2="14.5904"/><linearGradient id="h" gradientUnits="userSpaceOnUse" x1="31.0924" x2="110.274" xlink:href="#c" y1="173.003" y2="72.8867"/><linearGradient id="i" gradientUnits="userSpaceOnUse" x1="31.2865" x2="110.468" xlink:href="#c" y1="153.572" y2="53.4553"/><linearGradient id="j" gradientUnits="userSpaceOnUse" x1="31.2865" x2="110.468" xlink:href="#c" y1="95.2751" y2="-4.84166"/><clipPath id="k"><path d="m0 0h180v180h-180z"/></clipPath><g clip-path="url(#k)"><path d="m172.278 121.437c-18.217 42.272-66.301 60.429-103.9764 57.333-10.287-.845-30.9846-2.546-47.1451-17.719-31.03565-29.137-26.25574-90.0456 3.4538-125.9041 3.8262-4.6183 30.3092-35.55776 71.5788-35.14375988 30.2149.30342888 51.4229 17.24845988 54.0019 19.35965988 3.257 2.6666 10.443 9.0038 16.918 19.0581 15.214 23.6225 16.552 56.6004 5.169 83.0161z" fill="url(#a)"/><path d="m141.708 84.771s1.313-16.3646 9.343-19.9543c8.029-3.5897 22.714-4.8394 25.701-28.224 1.749-13.6903 2.717-19.6547 3.219-22.2474.196-1.0112-.631-1.9292-1.665-1.8437-7.313.603-31.19 3.7267-37.723 19.0132-7.745 18.1221 1.125 53.2562 1.125 53.2562z" fill="#91b3fa"/><path d="m172.078 18.4523c-8.601 6.1611-18.993 17.5616-25.134 29.4004-.835 1.9691-3.108 6.1059-4.702 13.707-1.376 6.3347-1.731 13.1419-1.342 17.712.024.2887.28.5034.572.4789.5-.0417.489-.5727.483-.5567-.179-7.758 1.223-17.2478 4.363-25.6165 3.967-10.2652 11.426-19.845 18.941-27.8486l.769-.7849c5.803-6.0017 6.885-5.9387 6.454-6.4434-.101-.1183-.278-.1376-.404-.0482z" fill="#bdd0fb"/><path d="m126.261 114.904c-1.077.393 11.046-11.892 16.601-32.5761 2.618-9.7463 3.935-22.1599 10.12-26.3597 5.148-3.4952 20.988.6763 26.157 2.1735.646.1871.782 1.0356.224 1.4104-2.747 1.847-8.67 6.2595-10.602 11.1227-2.545 6.41-9.304 9.9579-15.082 10.512-5.778.5542-9.041 1.3327-12.736 10.0338-3.695 8.7017-11.623 22.5654-14.682 23.6834z" fill="#bdd0fb"/><path d="m171.437 60.1689c-6.751-.4121-14.284 1.8893-18.542 7.2231l-.403.5092c-.932 1.1957-6.404 9.8132-9.703 17.0839-.041.0906-.001.1973.091.2378.155.0695.254-.0977.237-.0842 2.194-4.0731 5.272-9.2076 7.695-13.0345 2.607-4.1799 4.422-7.0053 9.618-9.3555 5.772-2.5136 11.014-2.2938 10.998-2.2925.081 0 .146-.0643.146-.144 0-.0758-.061-.1388-.137-.1433z" fill="url(#b)"/><path d="m138.092 156.204h-90.7565c-.9557 0-1.7308-.769-1.7308-1.718v-151.39063c0-.45257.3691-.819.825-.819h92.0963c.717 0 1.298.57664 1.298 1.28828v150.92135c-.001.949-.776 1.718-1.732 1.718z" fill="url(#d)"/><path d="m136.444 153.369h-87.4613c-.9557 0-1.7307-.769-1.7307-1.718v-146.05404c0-.42557.3477-.77079.7763-.77079h88.4157c.955 0 1.73.7695 1.73 1.71836v145.10747c.001.948-.774 1.717-1.73 1.717z" fill="url(#e)"/><path d="m120.87 30.4337h-55.0203c-.2124 0-.3866-.1723-.3866-.3838v-13.0558c0-.2108.1736-.3837.3866-.3837h55.0203c.212 0 .386.1722.386.3837v13.0558c0 .2115-.173.3838-.386.3838z" fill="#fff"/><path d="m128.412 97.9835h-53.0576c-.1981 0-.36-.1607-.36-.3575v-6.8985c0-.1967.1619-.3574.36-.3574h53.0576c.198 0 .36.1607.36.3574v6.8985c0 .1968-.163.3575-.36.3575z" fill="#fff"/><path d="m69.6908 100.855h-13.0661c-.2124 0-.384-.171-.384-.381v-12.5947c0-.2109.1723-.3813.384-.3813h13.0661c.2123 0 .3839.1711.3839.3813v12.5947c0 .211-.1716.381-.3839.381z" fill="url(#f)"/><path d="m128.605 78.5509h-53.057c-.1981 0-.36-.1608-.36-.3575v-6.8985c0-.1967.1619-.3574.36-.3574h53.057c.199 0 .36.1607.36.3574v6.8985c0 .1961-.161.3575-.36.3575z" fill="#fff"/><path d="m69.885 81.4227h-13.0667c-.2124 0-.384-.171-.384-.3812v-12.5949c0-.2108.1723-.3812.384-.3812h13.0661c.2123 0 .3839.171.3839.3812v12.5949c.0007.2109-.1716.3812-.3833.3812z" fill="url(#g)"/><path d="m128.412 136.848h-53.0576c-.1981 0-.36-.161-.36-.358v-6.898c0-.197.1619-.358.36-.358h53.0576c.198 0 .36.161.36.358v6.898c0 .197-.163.358-.36.358z" fill="#fff"/><path d="m69.6908 139.72h-13.0661c-.2124 0-.384-.171-.384-.382v-12.594c0-.211.1723-.382.384-.382h13.0661c.2123 0 .3839.171.3839.382v12.594c0 .211-.1716.382-.3839.382z" fill="url(#h)"/><path d="m128.605 117.416h-53.057c-.1981 0-.36-.161-.36-.357v-6.899c0-.197.1619-.357.36-.357h53.057c.199 0 .36.16.36.357v6.899c0 .196-.161.357-.36.357z" fill="#fff"/><path d="m69.885 120.288h-13.0667c-.2124 0-.384-.171-.384-.381v-12.595c0-.211.1723-.381.384-.381h13.0661c.2123 0 .3839.171.3839.381v12.595c.0007.21-.1716.381-.3833.381z" fill="url(#i)"/><path d="m128.605 59.1192h-53.057c-.1981 0-.36-.1607-.36-.3574v-6.8985c0-.1967.1619-.3574.36-.3574h53.057c.199 0 .36.1607.36.3574v6.8985c0 .1967-.161.3574-.36.3574z" fill="#fff"/><path d="m69.885 61.9911h-13.0667c-.2124 0-.384-.171-.384-.3812v-12.5949c0-.2109.1723-.3812.384-.3812h13.0661c.2123 0 .3839.171.3839.3812v12.5949c.0007.2102-.1716.3812-.3833.3812z" fill="url(#j)"/></g></svg>