<svg fill="none" height="22" viewBox="0 0 24 22" width="24" xmlns="http://www.w3.org/2000/svg"><g fill="#c5c7d3"><path d="m2.76724 5.53483c-1.51834 0-2.76724-1.24908-2.76724-2.76741 0-1.51834 1.24895-2.76742 2.76724-2.76742 1.5183 0 2.76742 1.24895 2.76742 2.76742 0 1.51833-1.24895 2.76741-2.76742 2.76741zm0-4.11441c-.73474 0-1.34699.61225-1.34699 1.347 0 .73474.61225 1.34699 1.34699 1.34699.73475 0 1.347-.61225 1.347-1.34699 0-.73475-.61225-1.347-1.347-1.347z"/><path d="m23.2897 3.47786h-14.47362c-.39188 0-.71012-.31842-.71012-.71012 0-.39188.31842-.71012.71012-.71012h14.47362c.3919 0 .7101.31842.7101.71012 0 .39188-.3182.71012-.7101.71012z"/><path d="m2.76724 13.7633c-1.51834 0-2.76724-1.249-2.76724-2.7674 0-1.51831 1.24895-2.76738 2.76742-2.76738 1.51833 0 2.76724 1.24907 2.76724 2.76738 0 1.5184-1.24895 2.7674-2.76742 2.7674zm0-4.11436c-.73474 0-1.34699.61226-1.34699 1.34696 0 .7348.61225 1.347 1.34699 1.347.73475 0 1.347-.6122 1.347-1.347 0-.7347-.61225-1.34696-1.347-1.34696z"/><path d="m23.2897 11.7064h-14.47362c-.39188 0-.71012-.3184-.71012-.7101 0-.3919.31842-.7102.71012-.7102h14.47362c.3919 0 .7101.3185.7101.7102 0 .3918-.3182.7101-.7101.7101z"/><path d="m2.76724 21.9919c-1.51834 0-2.76724-1.2491-2.76724-2.7675 0-1.5183 1.24895-2.7674 2.76742-2.7674 1.51833 0 2.76741 1.249 2.76741 2.7674-.00017 1.5184-1.24908 2.7675-2.76759 2.7675zm0-4.1144c-.73474 0-1.34699.6122-1.34699 1.3469 0 .7348.61225 1.347 1.34699 1.347.73475 0 1.347-.6122 1.347-1.347 0-.7591-.61225-1.3469-1.347-1.3469z"/><path d="m23.2897 19.9349h-14.47362c-.39188 0-.71012-.3184-.71012-.7101 0-.3919.31842-.7102.71012-.7102h14.47362c.3919 0 .7101.3185.7101.7102 0 .3919-.3182.7101-.7101.7101z"/></g></svg>