<svg fill="none" height="15" viewBox="0 0 17 15" width="17" xmlns="http://www.w3.org/2000/svg"><path clip-rule="evenodd" d="m16.4119 15h-3.6206v-5.27311c0-1.38022-.5664-2.32246-1.8118-2.32246-.9526 0-1.48237.63585-1.72895 1.24864-.09247.21995-.07801.52635-.07801.83274v5.51419h-3.58695s.04624-9.34078 0-10.18985h3.58695v1.59922c.2119-.69924 1.35806-1.6972 3.18726-1.6972 2.2693 0 4.0521 1.46572 4.0521 4.62189zm-14.45373-11.46443h-.02311c-1.155835 0-1.9052062-.77896-1.9052062-1.76635 0-1.006593.7715212-1.76922 1.9504762-1.76922 1.17799 0 1.90232.760715 1.92544 1.76635 0 .98739-.74745 1.76922-1.9476 1.76922zm-1.515114 1.27458h3.193014v10.18985h-3.193014z" fill="#007ebb" fill-rule="evenodd"/></svg>