<svg fill="none" height="64" viewBox="0 0 224 64" width="224" xmlns="http://www.w3.org/2000/svg" xmlns:xlink="http://www.w3.org/1999/xlink"><filter id="a" color-interpolation-filters="sRGB" filterUnits="userSpaceOnUse" height="63.4648" width="63.4649" x=".5" y=".5"><feFlood flood-opacity="0" result="BackgroundImageFix"/><feColorMatrix in="SourceAlpha" result="hardAlpha" type="matrix" values="0 0 0 0 0 0 0 0 0 0 0 0 0 0 0 0 0 0 127 0"/><feMorphology in="SourceAlpha" operator="dilate" radius="0.5" result="effect1_dropShadow_73_1793"/><feOffset dy="1"/><feGaussianBlur stdDeviation="1"/><feComposite in2="hardAlpha" operator="out"/><feColorMatrix type="matrix" values="0 0 0 0 0.0784314 0 0 0 0 0.0745098 0 0 0 0 0.0745098 0 0 0 0.15 0"/><feBlend in2="BackgroundImageFix" mode="normal" result="effect1_dropShadow_73_1793"/><feBlend in="SourceGraphic" in2="effect1_dropShadow_73_1793" mode="normal" result="shape"/></filter><filter id="b" color-interpolation-filters="sRGB" filterUnits="userSpaceOnUse" height="63.4648" width="63.4649" x=".5" y=".5"><feFlood flood-opacity="0" result="BackgroundImageFix"/><feColorMatrix in="SourceAlpha" result="hardAlpha" type="matrix" values="0 0 0 0 0 0 0 0 0 0 0 0 0 0 0 0 0 0 127 0"/><feMorphology in="SourceAlpha" operator="dilate" radius="0.5" result="effect1_dropShadow_73_1793"/><feOffset dy="1"/><feGaussianBlur stdDeviation="1"/><feComposite in2="hardAlpha" operator="out"/><feColorMatrix type="matrix" values="0 0 0 0 0.0784314 0 0 0 0 0.0745098 0 0 0 0 0.0745098 0 0 0 0.15 0"/><feBlend in2="BackgroundImageFix" mode="normal" result="effect1_dropShadow_73_1793"/><feBlend in="SourceGraphic" in2="effect1_dropShadow_73_1793" mode="normal" result="shape"/></filter><filter id="c" color-interpolation-filters="sRGB" filterUnits="userSpaceOnUse" height="54.0352" width="54.0351" x="5.21497" y="5.21484"><feFlood flood-opacity="0" result="BackgroundImageFix"/><feColorMatrix in="SourceAlpha" result="hardAlpha" type="matrix" values="0 0 0 0 0 0 0 0 0 0 0 0 0 0 0 0 0 0 127 0"/><feMorphology in="SourceAlpha" operator="dilate" radius="0.5" result="effect1_dropShadow_73_1793"/><feOffset dy="1"/><feGaussianBlur stdDeviation="1"/><feComposite in2="hardAlpha" operator="out"/><feColorMatrix type="matrix" values="0 0 0 0 0.0784314 0 0 0 0 0.0745098 0 0 0 0 0.0745098 0 0 0 0.15 0"/><feBlend in2="BackgroundImageFix" mode="normal" result="effect1_dropShadow_73_1793"/><feBlend in="SourceGraphic" in2="effect1_dropShadow_73_1793" mode="normal" result="shape"/></filter><filter id="d" color-interpolation-filters="sRGB" filterUnits="userSpaceOnUse" height="26.998" width="148.527" x="73.3382" y="18.2051"><feFlood flood-opacity="0" result="BackgroundImageFix"/><feColorMatrix in="SourceAlpha" result="hardAlpha" type="matrix" values="0 0 0 0 0 0 0 0 0 0 0 0 0 0 0 0 0 0 127 0"/><feMorphology in="SourceAlpha" operator="dilate" radius="0.5" result="effect1_dropShadow_73_1793"/><feOffset dy="1"/><feGaussianBlur stdDeviation="1"/><feComposite in2="hardAlpha" operator="out"/><feColorMatrix type="matrix" values="0 0 0 0 0.0784314 0 0 0 0 0.0745098 0 0 0 0 0.0745098 0 0 0 0.15 0"/><feBlend in2="BackgroundImageFix" mode="normal" result="effect1_dropShadow_73_1793"/><feBlend in="SourceGraphic" in2="effect1_dropShadow_73_1793" mode="normal" result="shape"/></filter><filter id="e" color-interpolation-filters="sRGB" filterUnits="userSpaceOnUse" height="7" width="150" x="73.5" y="49.5"><feFlood flood-opacity="0" result="BackgroundImageFix"/><feColorMatrix in="SourceAlpha" result="hardAlpha" type="matrix" values="0 0 0 0 0 0 0 0 0 0 0 0 0 0 0 0 0 0 127 0"/><feMorphology in="SourceAlpha" operator="dilate" radius="0.5" result="effect1_dropShadow_73_1793"/><feOffset dy="1"/><feGaussianBlur stdDeviation="1"/><feComposite in2="hardAlpha" operator="out"/><feColorMatrix type="matrix" values="0 0 0 0 0.0784314 0 0 0 0 0.0745098 0 0 0 0 0.0745098 0 0 0 0.15 0"/><feBlend in2="BackgroundImageFix" mode="normal" result="effect1_dropShadow_73_1793"/><feBlend in="SourceGraphic" in2="effect1_dropShadow_73_1793" mode="normal" result="shape"/></filter><g filter="url(#a)"><g filter="url(#b)"><circle r="28.761" shape-rendering="crispEdges" stroke="#fff" stroke-dasharray="1.89 1.89" stroke-width=".942982" transform="matrix(-1 0 0 1 32.2324 31.2325)"/></g><g filter="url(#c)"><circle fill="#fff" r="24.5175" transform="matrix(-1 0 0 1 32.2325 31.2324)"/></g><path d="m24.3137 18.9736c.8675 0 1.7338.3303 2.3988.9956l1.5729 1.5728-4.7981 4.7986-1.5727-1.573c-1.3305-1.3305-1.3305-3.468 0-4.7984.665-.6653 1.5314-.9956 2.3991-.9956zm4.6486 3.2456 14.1949 14.1964-4.7981 4.7986-14.1949-14.1964zm14.6631 15.0924.8659 5.2366-5.2361-.866z" fill="#5abcf7"/></g><g filter="url(#d)"><path d="m81.1565 41.4297h-5.3183v-19.9883h11.8125v4.334h-6.4942v3.8144h5.9883v4.334h-5.9883zm14.8067 0h-5.3457v-21.2735h5.3457zm11.1838.2734c-2.58 0-4.585-.6836-6.016-2.0508-1.4217-1.3763-2.1327-3.3313-2.1327-5.8652 0-2.6159.6608-4.6211 1.9827-6.0156 1.321-1.4037 3.208-2.1055 5.66-2.1055 2.333 0 4.133.6107 5.4 1.832 1.276 1.2123 1.914 2.9623 1.914 5.25v2.379h-9.556c.036.8658.351 1.5449.943 2.0371.602.4921 1.417.7382 2.447.7382.939 0 1.8-.0865 2.584-.2597.793-.1823 1.65-.4877 2.571-.916v3.8418c-.839.4283-1.705.7246-2.598.8886-.893.1641-1.96.2461-3.199.2461zm-.315-12.4004c-.629 0-1.157.2006-1.586.6016-.419.3919-.665 1.0117-.738 1.8594h4.594c-.018-.7474-.233-1.3444-.643-1.791-.401-.4467-.943-.67-1.627-.67zm13.426 4.2246-4.73-7.5878h6.07l2.351 4.3476 2.407-4.3476h6.084l-4.854 7.5878 5.045 7.9024h-6.07l-2.612-4.7031-2.597 4.7031h-6.084zm19.729 7.9024h-5.346v-15.4902h5.346zm-5.483-19.3457c0-.8021.223-1.3991.67-1.791.447-.392 1.167-.5879 2.16-.5879.994 0 1.718.2005 2.174.6015.456.4011.684.9935.684 1.7774 0 1.5677-.953 2.3515-2.858 2.3515-1.886 0-2.83-.7838-2.83-2.3515zm35.834 19.3457h-7.082l-7.301-14.082h-.123c.173 2.2148.26 3.9056.26 5.0722v9.0098h-4.785v-19.9883h7.055l7.273 13.8906h.082c-.128-2.0143-.191-3.6321-.191-4.8535v-9.0371h4.812zm18.799-7.7793c0 2.5338-.684 4.5117-2.051 5.9336-1.358 1.4127-3.263 2.1191-5.715 2.1191-2.351 0-4.224-.7246-5.619-2.1738-1.385-1.4492-2.078-3.4089-2.078-5.8789 0-2.5247.679-4.4844 2.037-5.8789 1.367-1.4037 3.281-2.1055 5.742-2.1055 1.523 0 2.867.3236 4.034.9707 1.166.6472 2.064 1.5768 2.693 2.7891.638 1.2031.957 2.6113.957 4.2246zm-10.035 0c0 1.3307.178 2.347.533 3.0488.356.6927.953 1.0391 1.791 1.0391.829 0 1.413-.3464 1.75-1.0391.346-.7018.52-1.7181.52-3.0488 0-1.3216-.174-2.3197-.52-2.9942-.346-.6744-.939-1.0117-1.777-1.0117-.821 0-1.408.3373-1.764 1.0117-.355.6654-.533 1.6635-.533 2.9942zm20.685 3.8281c.72 0 1.582-.1777 2.584-.5332v3.8965c-.72.3099-1.408.5286-2.064.6562-.647.1368-1.408.2051-2.283.2051-1.796 0-3.09-.4375-3.883-1.3125-.793-.8841-1.19-2.2376-1.19-4.0605v-6.3848h-1.873v-2.1738l2.379-1.6817 1.381-3.2539h3.5v3.1036h3.801v4.0058h-3.801v6.0293c0 1.0026.483 1.5039 1.449 1.5039zm12.77 4.2246c-2.58 0-4.585-.6836-6.016-2.0508-1.422-1.3763-2.133-3.3313-2.133-5.8652 0-2.6159.661-4.6211 1.983-6.0156 1.322-1.4037 3.208-2.1055 5.66-2.1055 2.333 0 4.134.6107 5.4 1.832 1.276 1.2123 1.915 2.9623 1.915 5.25v2.379h-9.557c.036.8658.351 1.5449.943 2.0371.602.4921 1.418.7382 2.447.7382.939 0 1.801-.0865 2.584-.2597.793-.1823 1.65-.4877 2.571-.916v3.8418c-.839.4283-1.705.7246-2.598.8886-.893.1641-1.96.2461-3.199.2461zm-.315-12.4004c-.628 0-1.157.2006-1.585.6016-.42.3919-.666 1.0117-.739 1.8594h4.594c-.018-.7474-.232-1.3444-.643-1.791-.401-.4467-.943-.67-1.627-.67z" fill="#fff"/></g><g filter="url(#e)"><path d="m76 51h145v2h-145z" fill="#fff"/></g></svg>