<svg fill="none" height="171" viewBox="0 0 319 171" width="319" xmlns="http://www.w3.org/2000/svg"><path d="m143.711 154.227c-47.2615-4.274-92.658-21.461-80.4455-65.5191 3.0843-11.1296 11.1029-21.4442 21.7426-27.4891 10.3056-5.8541 22.4019-7.5608 33.8629-7.1999 26.804.846 51.62 10.6485 78.806 9.3192 23.392-1.1447 42.968-18.0848 65.951-22.0166 9.312-1.5926 19.283-.8129 26.295 3.9235 23.249 15.7104 25.748 55.478-3.806 81.727-21.395 19.004-42.235 23.939-71.079 28.937-17.842 3.094-45.534.649-71.327-1.682z" fill="#bfa564" opacity=".09"/><path d="m119.322 170.328h-15.841l-3.423-32.03h22.686z" fill="#fff"/><path d="m112.754 168.624-6.56-38.67-9.5409 3.322-.2949-.763 10.5148-3.66 6.726 39.643z" fill="#7252b7"/><path d="m117.041 168.728h-11.28l-2.438-23.385c7.355 4.67 8.781-1.423 16.153 0z" fill="#ff864d" opacity=".8"/><path d="m5.60844 14.291h34.29586c2.56 0 4.6351 1.97 4.6351 4.4004v17.977c0 2.4304-2.0751 4.4005-4.6351 4.4005h-2.8134c-.948 3.1333-2.5906 8.1496-2.5906 8.1496l-4.0038-8.1496h-24.88806c-2.56001 0-4.635109-1.9701-4.635109-4.4005v-17.977c0-2.4304 2.075099-4.4004 4.635109-4.4004z" fill="#5abcf7"/><path d="m7.80974 22.2031h29.88786v-2.2271h-29.88786z" fill="#fff"/><path d="m7.80974 28.6416h29.88786v-2.2272h-29.88786z" fill="#fff"/><path d="m7.80974 35.083h29.88786v-2.2272h-29.88786z" fill="#fff"/><path d="m62.5486 86.0828s-5.7054-17.9169-7.2738-12.2308c-1.5683 5.6862-3.2262 26.575-.712 28.974 3.1672 3.025 6.8718 5.593 10.963 7.733 2.287-4.519 4.1043-10.6093 4.9671-19.8912-2.6168-1.2463-5.2663-2.7581-7.9443-4.585z" fill="#ffba9a"/><path d="m177.781 59.1846c-10.268.902-29.092 5.4165-47.157 20.0382-9.707 7.8573-33.0243 24.3492-60.1316 11.4449-.8628 9.2819-2.6801 15.3723-4.9671 19.8913 26.12 13.659 68.1527 9.75 88.8667-5.701l30.805-20.8511z" fill="#5abcf7"/><path d="m73.3425 94.3025c.5963 4.4232-.0372 8.8425-1.8567 12.9545-.142.321.4107.46.5505.143 1.8391-4.154 2.4813-8.6307 1.8785-13.0975-.0481-.3401-.6204-.3442-.5723 0z" fill="#36295b"/><path d="m35.3058 90.3009c-.2534 1.1551-3.1695 1.5553-6.5093.8938-3.342-.6615-7.5184-2.4677-7.265-3.6248.2534-1.1551 4.8448-1.2235 8.1846-.562 3.342.6636 5.843 2.1359 5.5897 3.293z" fill="#ffba9a"/><path d="m49.5759 107.525-19.6217-1.08c-1.7627-.098-3.1104-1.533-3.0078-3.206l2.4137-39.5355c.1027-1.6735 1.6142-2.953 3.377-2.8555l19.6216 1.0804c1.7627.0975 3.1105 1.5325 3.0078 3.2059l-2.4137 39.5357c-.1026 1.673-1.6142 2.953-3.3769 2.855z" fill="#5abcf7"/><path d="m48.2628 99.811-16.0656-.8833c-1.4001-.0768-2.4682-1.2152-2.3874-2.5445l1.8632-30.5188c.0808-1.3293 1.28-2.3433 2.6801-2.2666l16.0656.8834c1.4002.0768 2.4683 1.2152 2.3853 2.5445l-1.8632 30.5188c-.0808 1.3292-1.28 2.3433-2.678 2.2665z" fill="#fff"/><path d="m39.8838 75.2831-5.8387-.3214c-.3648-.0207-.6422-.3173-.6225-.6636l.3538-5.8126c.0219-.3463.3342-.6097.699-.591l5.8387.3214c.3647.0207.6422.3173.6225.6636l-.356 5.8126c-.0197.3463-.3321.6097-.6968.591z" fill="#5abcf7" opacity=".6"/><path d="m39.3859 85.0312-5.8387-.3215c-.3647-.0207-.6421-.3172-.6225-.6635l.3539-5.8127c.0218-.3463.3342-.6096.699-.591l5.8386.3215c.3648.0207.6422.3172.6225.6635l-.356 5.8127c-.0197.3463-.3342.6096-.6968.591z" fill="#5abcf7" opacity=".6"/><path d="m48.9404 85.4384-5.8386-.3214c-.3648-.0208-.6422-.3173-.6226-.6636l.3539-5.8126c.0218-.3463.3342-.6097.699-.591l5.8386.3214c.3648.0207.6422.3173.6226.6636l-.3561 5.8126c-.0196.3463-.332.6096-.6968.591z" fill="#5abcf7" opacity=".6"/><path d="m49.4402 75.8241-5.8387-.3214c-.3648-.0207-.6422-.3173-.6225-.6636l.356-5.8126c.0219-.3463.3342-.6097.699-.591l5.8387.3214c.3648.0208.6422.3173.6225.6636l-.3539 5.8126c-.024.3463-.3385.6118-.7011.591z" fill="#5abcf7" opacity=".6"/><path d="m43.0404 104.815-6.2646-.344c-.6291-.036-1.1096-.548-1.0725-1.145l.0328-.541c.0371-.597.5766-1.054 1.2057-1.018l6.2646.344c.6291.035 1.1096.547 1.0725 1.144l-.0328.542c-.0371.597-.5766 1.053-1.2057 1.018z" fill="#fff"/><path d="m32.816 78.6836c-.1835 1.1903-2.2477 1.8477-3.8073 1.632-1.5596-.2177-2.6736-1.3583-2.4901-2.5486s1.5968-1.9804 3.1542-1.7647c1.5596.2177 3.3267 1.491 3.1432 2.6813z" fill="#ffba9a"/><path d="m32.067 81.6553c-.1835 1.1903-2.2476 1.8476-3.8072 1.632-1.5596-.2178-2.6736-1.3583-2.4901-2.5486.1834-1.1903 1.5967-1.9804 3.1541-1.7648 1.5596.2178 3.3267 1.491 3.1432 2.6814z" fill="#ffba9a"/><path d="m31.2074 85.3584c-.1834 1.1903-2.2476 1.8477-3.8072 1.632-1.5596-.2177-2.6736-1.3583-2.4901-2.5486s1.5967-1.9804 3.1541-1.7647c1.5618.2177 3.3267 1.491 3.1432 2.6813z" fill="#ffba9a"/><path d="m190.046 59.3652 20.852 3.6124c13.586 2.3537 25.947 9.0642 34.831 19.1051 19.949 22.5513 29.125 45.1613 22.662 56.3533-10.098 17.483-40.691 31.952-40.691 31.952h-88.043c-4.183-21.03-5.612-42.972-5.8-69.322l31.376-31.6827z" fill="#5abcf7"/><path d="m169.521 73.0929c7.599 5.5451 18.872 5.3419 26.284-.4002.284-.2198-.12-.6014-.404-.3836-7.228 5.599-18.211 5.7027-25.594.3152-.29-.2115-.574.2592-.286.4686z" fill="#36295b"/><path d="m222.317 96.9243c3.753 5.9267 7.506 11.8537 11.256 17.7777.188.299.681.027.494-.274-3.753-5.926-7.506-11.853-11.256-17.7775-.19-.2986-.684-.0249-.494.2738z" fill="#36295b"/><path d="m134.692 105.372c2.7-2.818 6.566-4.471 10.587-4.479 1.949-.004 4.325.295 5.865 1.535.97.781 1.54 1.939.887 3.106-.756 1.35-2.645 1.338-3.052-.282-.62-2.486 2.63-3.635 4.553-4.224 2.247-.689 4.595-1.064 6.957-1.1137 2.162-.0457 4.434.1117 6.509.7217 1.133.334 2.328.9 2.872 1.96.465.904.264 2.243-.703 2.772-1.042.57-1.96-.216-2.222-1.178-.251-.927.011-1.87.75-2.517 1.607-1.412 4.292-1.22 6.314-1.271 2.349-.061 4.697-.121 7.045-.179 2.208-.056 4.827-.3357 6.647 1.101 1.004.793 1.684 2.155.913 3.318-1.003 1.506-3.264 1.075-3.314-.786-.068-2.505 3.025-3.247 5.072-3.672 2.383-.4958 4.814-.7695 7.254-.8131 1.957-.0352 4.087-.0663 5.963.5392 1.165.3749 2.464 1.1319 2.735 2.3639.214.977-.297 2.314-1.28 2.752-1.806.805-1.179-1.983-.646-2.698.875-1.176 2.409-1.599 3.837-1.792 2.587-.35 5.254-.379 7.86-.545 2.719-.1721 5.441-.3422 8.16-.5143.365-.0228.367-.564 0-.5412-4.037.255-8.073.508-12.11.7631-2.695.17-6.489-.0477-8.241 2.3554-.808 1.11-1.298 4.274 1.088 3.59 1.666-.479 2.37-2.715 1.671-4.112-1.108-2.2108-4.238-2.5592-6.488-2.665-3.7-.1742-7.522.1431-11.107 1.0556-2.143.5454-4.718 1.8124-4.301 4.3194.339 2.026 2.731 2.534 4.089 1 1.582-1.786.092-4.084-1.793-4.959-1.319-.6114-2.844-.6591-4.284-.6404-1.965.027-3.934.0975-5.899.1472-2.794.0705-6.807-.45-9.233 1.2322-1.422.985-1.87 2.988-.728 4.354 1.14 1.365 3.1.683 3.609-.837.762-2.277-1.335-3.818-3.382-4.419-3.215-.9461-6.882-.9398-10.174-.4318-2.547.3918-6.531 1.1078-8.093 3.3548-1.055 1.518-.295 4.714 2.169 4.019 2.488-.703 2.093-3.763.481-5.041-2.277-1.806-5.972-1.908-8.749-1.451-3.272.537-6.264 2.098-8.497 4.429-.24.249.162.632.409.373z" fill="#36295b"/><path d="m134.807 98.0881c-.627 7.9199-1.258 15.8909-.666 23.8289.026.346.596.348.57 0-.592-7.938.039-15.909.666-23.8289.027-.3464-.544-.3443-.57 0z" fill="#36295b"/><path d="m314.734 139.427c-2.28 0-4.134-1.76-4.134-3.925s1.854-3.926 4.134-3.926c2.281 0 4.138 1.761 4.138 3.926s-1.855 3.925-4.138 3.925zm0-7.31c-1.965 0-3.564 1.518-3.564 3.385 0 1.866 1.599 3.384 3.564 3.384 1.966 0 3.565-1.518 3.565-3.384 0-1.867-1.597-3.385-3.565-3.385z" fill="#bfa564"/><path d="m39.4444 138.977c-2.2804 0-4.1349-1.761-4.1349-3.925 0-2.165 1.8545-3.926 4.1349-3.926s4.1349 1.761 4.1349 3.926c0 2.164-1.8545 3.925-4.1349 3.925zm0-7.31c-1.9659 0-3.5648 1.518-3.5648 3.385 0 1.866 1.5989 3.384 3.5648 3.384s3.5648-1.518 3.5648-3.384c0-1.867-1.5989-3.385-3.5648-3.385z" fill="#bfa564"/><path d="m185.543 52.2459h26.612c5.989-.5267 13.833-11.4012 6.417-17.7447-2.652-2.2686-4.77-3.8986-6.302-6.441-1.251-2.0799-2.182-4.3464-2.883-6.698-7.582-25.40922-29.414-21.056497-29.414-21.056497s-14.499-3.689133-21.585 14.563697c-4.279 11.0238-3.993 13.139-9.27 19.1797-6.232 7.1336-4.135 15.7063-.142 18.7277-.002 0 36.567-.3048 36.567-.5309z" fill="#36295b"/><path d="m194.274 41.8506v16.6208c0 6.0449-4.913 11.0964-11.267 11.4925-.103.0062-.205.0104-.314.0166-6.864.3525-12.573-4.9831-12.573-11.5091v-16.6208z" fill="#ffba9a"/><path d="m194.274 41.8507v3.4548c-4.974 15.2729-18.032 14.4704-24.154 1.4993v-4.9562h24.154z" fill="#36295b"/><path d="m199.46 29.0373c-.142 13.8109-8.565 22.114-16.686 22.4748-9.129.4065-20.109-7.4467-20.395-23.5594-.21-11.8015 9.692-20.71637 19.3-20.71637 9.611 0 17.903 9.99737 17.781 21.80097z" fill="#ffba9a"/><path d="m161.382 27.4128c1.71-4.0624 5.36-12.4277 15.26-13.4044 5.989 5.7773 16.83 9.2508 25.099 8.6183l-3.992-12.68282-21.394-5.41654-14.547 8.39436-2.853 10.4246z" fill="#36295b"/><path d="m162.762 36.7095c3.465 0 6.275-2.6674 6.275-5.9578s-2.81-5.9578-6.275-5.9578c-3.466 0-6.276 2.6674-6.276 5.9578s2.81 5.9578 6.276 5.9578z" fill="#ffba9a"/><path d="m198.975 36.7095c3.466 0 6.275-2.6674 6.275-5.9578s-2.809-5.9578-6.275-5.9578-6.276 2.6674-6.276 5.9578 2.81 5.9578 6.276 5.9578z" fill="#ffba9a"/><path d="m181.205 34.5596c-.55 0-.998-.4251-.998-.9477v-6.2668c0-.5225.448-.9476.998-.9476.551 0 .998.4251.998.9476v6.2668c0 .5226-.447.9477-.998.9477z" fill="#804327"/><path d="m177.874 21.6545c.332.7092-1.004 1.9659-2.99 2.8037-1.985.8378-3.894 1.5055-4.196.2343-.255-1.0763 1.005-1.9659 2.99-2.8036 1.986-.8378 3.864-.9436 4.196-.2344z" fill="#36295b"/><path d="m186.654 22.4157c-.188.7569 1.376 1.7523 3.49 2.223 2.115.4708 4.122.786 4.168-.5163.039-1.1032-1.376-1.7523-3.491-2.223-2.114-.4728-3.979-.2406-4.167.5163z" fill="#36295b"/><path d="m185.146 41.467c.638-.2696.869-.9394.769-1.6196-.147-.9892-.527-1.7834-1.667-2.4159-1.365-.7548-3.18-.8253-4.635-.2592-1.42.5537-3.076 2.3848-2.305 3.9629.42.8564 1.827.4023 2.526.2239.819-.2094 1.662-.3338 2.509-.2447.819.0871 1.63.5911 2.46.45.126-.0207.24-.0539.343-.0974z" fill="#fff"/><path d="m178.064 27.6838c.154-.9009-.49-1.7501-1.439-1.8967s-1.843.4649-1.998 1.3658c-.154.9009.49 1.7501 1.439 1.8967s1.844-.4649 1.998-1.3658z" fill="#36295b"/><path d="m191.624 27.6838c.155-.9009-.49-1.7501-1.438-1.8967-.949-.1466-1.844.4649-1.998 1.3658-.155.9009.489 1.7501 1.438 1.8967s1.844-.4649 1.998-1.3658z" fill="#36295b"/><path d="m169.443 3.44752c-9.17 1.5615-11.994 11.33698-15.463 18.16988-1.068 2.1069-2.311 4.1578-3.969 5.8997-1.555 1.6341-3.462 2.9011-5.183 4.3631-3.174 2.6937-5.033 6.3269-4.369 10.4307.701 4.33 4.292 7.764 8.735 8.7594.356.0809.509-.4417.151-.5226-4.181-.9352-7.566-4.1121-8.303-8.1787-.415-2.2852.018-4.7198 1.202-6.7478 1.044-1.7855 2.665-3.1397 4.301-4.4233 1.566-1.2297 3.145-2.4324 4.443-3.9317 1.225-1.4164 2.221-2.9903 3.093-4.6223 1.869-3.5046 3.145-7.285 5.231-10.6879 2.294-3.74309 5.605-7.19167 10.282-7.98798.362-.06014.209-.58271-.151-.5205z" fill="#36295b"/><path d="m162.486 31.0605c-.255-1.5718-1.594-2.843-3.248-3.0898-.358-.0539-.513.4687-.151.5226 1.481.2198 2.622 1.3043 2.851 2.7103.055.3443.605.1991.548-.1431z" fill="#36295b"/><path d="m200.182 31.0688c.046-1.1882.867-2.2292 2.058-2.6025.347-.1078.199-.6324-.151-.5225-1.437.45-2.42 1.6859-2.477 3.125-.013.3484.557.3464.57 0z" fill="#36295b"/><path d="m191.833 38.628c2.36 0 4.273-1.816 4.273-4.0562s-1.913-4.0562-4.273-4.0562c-2.359 0-4.272 1.816-4.272 4.0562s1.913 4.0562 4.272 4.0562z" fill="#ff9498" opacity=".4"/><path d="m172.055 38.628c2.36 0 4.273-1.816 4.273-4.0562s-1.913-4.0562-4.273-4.0562c-2.359 0-4.272 1.816-4.272 4.0562s1.913 4.0562 4.272 4.0562z" fill="#ff9498" opacity=".4"/><g fill="#fff"><path d="m173.693 34.4083c-3.643 0-6.607-2.8141-6.607-6.273 0-3.459 2.964-6.273 6.607-6.273 3.644 0 6.608 2.814 6.608 6.273 0 3.4589-2.964 6.273-6.608 6.273zm0-11.7331c-3.171 0-5.751 2.4491-5.751 5.4601s2.58 5.4601 5.751 5.4601c3.172 0 5.752-2.4491 5.752-5.4601.002-3.011-2.58-5.4601-5.752-5.4601z"/><path d="m188.524 34.4083c-3.643 0-6.607-2.8141-6.607-6.273 0-3.459 2.964-6.273 6.607-6.273s6.608 2.814 6.608 6.273c.002 3.4589-2.962 6.273-6.608 6.273zm0-11.7331c-3.172 0-5.751 2.4491-5.751 5.4601s2.579 5.4601 5.751 5.4601 5.754-2.4491 5.754-5.4601-2.58-5.4601-5.754-5.4601z"/><path d="m162.597 24.3146-.258.7752 5.277 1.5795.257-.7752z"/><path d="m182.584 26.1035h-3.043v.8129h3.043z"/><path d="m199.04 24.4167-4.848 1.4427.256.7756 4.848-1.4427z"/></g><path d="m176.721 13.9346c1.551 1.3873 3.169 2.7041 4.862 3.9234 1.697 1.2111 3.464 2.335 5.336 3.2786 1.861.958 3.814 1.7564 5.837 2.3516.504.1534 1.018.2758 1.527.4147.513.1223 1.033.2219 1.55.3339l1.567.2675 1.583.1845-.015.2116-1.606-.1017-1.598-.1887c-.527-.0974-1.058-.1845-1.584-.2924-.522-.1265-1.049-.2364-1.566-.3753-2.069-.5682-4.067-1.3624-5.963-2.3309-1.888-.9829-3.687-2.1151-5.363-3.3884-1.684-1.265-3.252-2.6606-4.725-4.135z" fill="#36295b"/><path d="m235.967 115.583h-73.526v54.794h73.526z" fill="#fff"/><path d="m235.967 166.312h-73.526v4.063h73.526z" fill="#36295b"/><path d="m202.609 143.066h-6.804v-6.673h6.804zm-6.234-.541h5.664v-5.589h-5.664z" fill="#013d55"/></svg>