<svg width="224" height="64" viewBox="0 0 224 64" fill="none" xmlns="http://www.w3.org/2000/svg">
<g filter="url(#filter0_d_278_10925)">
<g filter="url(#filter1_d_278_10925)">
<circle r="28.761" transform="matrix(-1 0 0 1 32.2324 31.2325)" stroke="white" stroke-width="0.942982" stroke-dasharray="1.89 1.89" shape-rendering="crispEdges"/>
</g>
<g filter="url(#filter2_d_278_10925)">
<circle r="24.5175" transform="matrix(-1 0 0 1 32.2325 31.2324)" fill="white"/>
</g>
<path d="M24.3137 18.9736C25.1811 18.9736 26.0474 19.3039 26.7125 19.9692L28.2854 21.542L23.4873 26.3406L21.9146 24.7676C20.5841 23.4371 20.5841 21.2996 21.9146 19.9692C22.5796 19.3039 23.446 18.9736 24.3137 18.9736ZM28.9623 22.2192L43.1572 36.4156L38.3591 41.2142L24.1641 27.0178L28.9623 22.2192ZM43.6254 37.3116L44.4913 42.5482L39.2552 41.6822L43.6254 37.3116Z" fill="#5ABCF7"/>
</g>
<g filter="url(#filter3_d_278_10925)">
<path d="M81.1565 41.4297H75.8381V21.4414H87.6506V25.7754H81.1565V29.5898H87.1448V33.9238H81.1565V41.4297ZM95.9631 41.4297H90.6174V20.1562H95.9631V41.4297ZM106.641 25.666C108.145 25.666 109.444 25.9303 110.537 26.459C111.631 26.9785 112.474 27.7624 113.067 28.8105C113.659 29.8587 113.955 31.1712 113.955 32.748V35.127H104.399C104.444 35.9382 104.745 36.6035 105.301 37.123C105.866 37.6426 106.696 37.9023 107.789 37.9023C108.755 37.9023 109.64 37.8066 110.442 37.6152C111.253 37.4238 112.087 37.1276 112.944 36.7266V40.5684C112.196 40.9603 111.38 41.2474 110.496 41.4297C109.612 41.612 108.496 41.7031 107.147 41.7031C105.588 41.7031 104.194 41.4251 102.963 40.8691C101.733 40.3132 100.762 39.4518 100.051 38.2852C99.3492 37.1185 98.9983 35.6191 98.9983 33.7871C98.9983 31.9277 99.3173 30.401 99.9553 29.207C100.593 28.0039 101.487 27.1152 102.635 26.541C103.783 25.9577 105.119 25.666 106.641 25.666ZM106.832 29.3027C106.203 29.3027 105.675 29.5033 105.246 29.9043C104.827 30.2962 104.581 30.916 104.508 31.7637H109.102C109.093 31.3079 109.002 30.8932 108.828 30.5195C108.655 30.1458 108.4 29.8496 108.063 29.6309C107.735 29.4121 107.324 29.3027 106.832 29.3027ZM120.258 33.5273L115.528 25.9395H121.598L123.949 30.2871L126.356 25.9395H132.44L127.586 33.5273L132.631 41.4297H126.561L123.949 36.7266L121.352 41.4297H115.268L120.258 33.5273ZM139.987 25.9395V41.4297H134.641V25.9395H139.987ZM137.334 19.7051C138.1 19.7051 138.765 19.8646 139.33 20.1836C139.905 20.5026 140.192 21.1361 140.192 22.084C140.192 23.0046 139.905 23.6289 139.33 23.957C138.765 24.276 138.1 24.4355 137.334 24.4355C136.55 24.4355 135.88 24.276 135.324 23.957C134.778 23.6289 134.504 23.0046 134.504 22.084C134.504 21.1361 134.778 20.5026 135.324 20.1836C135.88 19.8646 136.55 19.7051 137.334 19.7051ZM170.338 41.4297H163.256L155.955 27.3477H155.832C155.878 27.776 155.919 28.291 155.955 28.8926C155.992 29.4941 156.024 30.1094 156.051 30.7383C156.078 31.3581 156.092 31.9186 156.092 32.4199V41.4297H151.307V21.4414H158.362L165.635 35.332H165.717C165.69 34.8945 165.662 34.3887 165.635 33.8145C165.608 33.2311 165.58 32.6432 165.553 32.0508C165.535 31.4583 165.526 30.9342 165.526 30.4785V21.4414H170.338V41.4297ZM189.137 33.6504C189.137 34.9447 188.959 36.0931 188.604 37.0957C188.248 38.0983 187.733 38.9414 187.059 39.625C186.384 40.3086 185.569 40.8281 184.612 41.1836C183.655 41.5299 182.574 41.7031 181.371 41.7031C180.25 41.7031 179.22 41.5299 178.281 41.1836C177.352 40.8281 176.541 40.3086 175.848 39.625C175.155 38.9414 174.617 38.0983 174.235 37.0957C173.861 36.0931 173.674 34.9447 173.674 33.6504C173.674 31.9368 173.984 30.4876 174.604 29.3027C175.233 28.1178 176.126 27.2155 177.283 26.5957C178.45 25.9759 179.84 25.666 181.453 25.666C182.939 25.666 184.261 25.9759 185.418 26.5957C186.576 27.2155 187.483 28.1178 188.139 29.3027C188.804 30.4876 189.137 31.9368 189.137 33.6504ZM179.102 33.6504C179.102 34.5345 179.179 35.2819 179.334 35.8926C179.489 36.4941 179.735 36.9544 180.073 37.2734C180.419 37.5833 180.87 37.7383 181.426 37.7383C181.982 37.7383 182.424 37.5833 182.752 37.2734C183.08 36.9544 183.317 36.4941 183.463 35.8926C183.618 35.2819 183.696 34.5345 183.696 33.6504C183.696 32.7663 183.618 32.028 183.463 31.4355C183.317 30.8431 183.076 30.3965 182.739 30.0957C182.41 29.7949 181.964 29.6445 181.399 29.6445C180.587 29.6445 180 29.9818 179.635 30.6562C179.28 31.3307 179.102 32.3288 179.102 33.6504ZM199.787 37.4785C200.27 37.4785 200.712 37.4284 201.114 37.3281C201.515 37.2279 201.934 37.1003 202.371 36.9453V40.8418C201.788 41.097 201.168 41.3021 200.512 41.457C199.865 41.6211 199.035 41.7031 198.024 41.7031C197.021 41.7031 196.137 41.5482 195.371 41.2383C194.606 40.9193 194.009 40.3724 193.58 39.5977C193.161 38.8138 192.951 37.7246 192.951 36.3301V29.9453H191.078V27.7715L193.457 26.0898L194.838 22.8359H198.338V25.9395H202.139V29.9453H198.338V35.9746C198.338 36.4759 198.466 36.8542 198.721 37.1094C198.976 37.3555 199.332 37.4785 199.787 37.4785ZM212.051 25.666C213.555 25.666 214.854 25.9303 215.948 26.459C217.041 26.9785 217.884 27.7624 218.477 28.8105C219.069 29.8587 219.365 31.1712 219.365 32.748V35.127H209.809C209.854 35.9382 210.155 36.6035 210.711 37.123C211.276 37.6426 212.106 37.9023 213.199 37.9023C214.166 37.9023 215.05 37.8066 215.852 37.6152C216.663 37.4238 217.497 37.1276 218.354 36.7266V40.5684C217.606 40.9603 216.791 41.2474 215.906 41.4297C215.022 41.612 213.906 41.7031 212.557 41.7031C210.998 41.7031 209.604 41.4251 208.373 40.8691C207.143 40.3132 206.172 39.4518 205.461 38.2852C204.759 37.1185 204.408 35.6191 204.408 33.7871C204.408 31.9277 204.727 30.401 205.365 29.207C206.003 28.0039 206.897 27.1152 208.045 26.541C209.194 25.9577 210.529 25.666 212.051 25.666ZM212.242 29.3027C211.614 29.3027 211.085 29.5033 210.656 29.9043C210.237 30.2962 209.991 30.916 209.918 31.7637H214.512C214.503 31.3079 214.412 30.8932 214.239 30.5195C214.065 30.1458 213.81 29.8496 213.473 29.6309C213.145 29.4121 212.735 29.3027 212.242 29.3027Z" fill="white"/>
</g>
<g filter="url(#filter4_d_278_10925)">
<rect x="76" y="51" width="145" height="2" fill="white"/>
</g>
<defs>
<filter id="filter0_d_278_10925" x="0.5" y="0.5" width="63.4649" height="63.4648" filterUnits="userSpaceOnUse" color-interpolation-filters="sRGB">
<feFlood flood-opacity="0" result="BackgroundImageFix"/>
<feColorMatrix in="SourceAlpha" type="matrix" values="0 0 0 0 0 0 0 0 0 0 0 0 0 0 0 0 0 0 127 0" result="hardAlpha"/>
<feMorphology radius="0.5" operator="dilate" in="SourceAlpha" result="effect1_dropShadow_278_10925"/>
<feOffset dy="1"/>
<feGaussianBlur stdDeviation="1"/>
<feComposite in2="hardAlpha" operator="out"/>
<feColorMatrix type="matrix" values="0 0 0 0 0.0784314 0 0 0 0 0.0745098 0 0 0 0 0.0745098 0 0 0 0.15 0"/>
<feBlend mode="normal" in2="BackgroundImageFix" result="effect1_dropShadow_278_10925"/>
<feBlend mode="normal" in="SourceGraphic" in2="effect1_dropShadow_278_10925" result="shape"/>
</filter>
<filter id="filter1_d_278_10925" x="0.5" y="0.5" width="63.4649" height="63.4648" filterUnits="userSpaceOnUse" color-interpolation-filters="sRGB">
<feFlood flood-opacity="0" result="BackgroundImageFix"/>
<feColorMatrix in="SourceAlpha" type="matrix" values="0 0 0 0 0 0 0 0 0 0 0 0 0 0 0 0 0 0 127 0" result="hardAlpha"/>
<feMorphology radius="0.5" operator="dilate" in="SourceAlpha" result="effect1_dropShadow_278_10925"/>
<feOffset dy="1"/>
<feGaussianBlur stdDeviation="1"/>
<feComposite in2="hardAlpha" operator="out"/>
<feColorMatrix type="matrix" values="0 0 0 0 0.0784314 0 0 0 0 0.0745098 0 0 0 0 0.0745098 0 0 0 0.15 0"/>
<feBlend mode="normal" in2="BackgroundImageFix" result="effect1_dropShadow_278_10925"/>
<feBlend mode="normal" in="SourceGraphic" in2="effect1_dropShadow_278_10925" result="shape"/>
</filter>
<filter id="filter2_d_278_10925" x="5.21497" y="5.21484" width="54.0351" height="54.0352" filterUnits="userSpaceOnUse" color-interpolation-filters="sRGB">
<feFlood flood-opacity="0" result="BackgroundImageFix"/>
<feColorMatrix in="SourceAlpha" type="matrix" values="0 0 0 0 0 0 0 0 0 0 0 0 0 0 0 0 0 0 127 0" result="hardAlpha"/>
<feMorphology radius="0.5" operator="dilate" in="SourceAlpha" result="effect1_dropShadow_278_10925"/>
<feOffset dy="1"/>
<feGaussianBlur stdDeviation="1"/>
<feComposite in2="hardAlpha" operator="out"/>
<feColorMatrix type="matrix" values="0 0 0 0 0.0784314 0 0 0 0 0.0745098 0 0 0 0 0.0745098 0 0 0 0.15 0"/>
<feBlend mode="normal" in2="BackgroundImageFix" result="effect1_dropShadow_278_10925"/>
<feBlend mode="normal" in="SourceGraphic" in2="effect1_dropShadow_278_10925" result="shape"/>
</filter>
<filter id="filter3_d_278_10925" x="73.3381" y="18.2051" width="148.527" height="26.998" filterUnits="userSpaceOnUse" color-interpolation-filters="sRGB">
<feFlood flood-opacity="0" result="BackgroundImageFix"/>
<feColorMatrix in="SourceAlpha" type="matrix" values="0 0 0 0 0 0 0 0 0 0 0 0 0 0 0 0 0 0 127 0" result="hardAlpha"/>
<feMorphology radius="0.5" operator="dilate" in="SourceAlpha" result="effect1_dropShadow_278_10925"/>
<feOffset dy="1"/>
<feGaussianBlur stdDeviation="1"/>
<feComposite in2="hardAlpha" operator="out"/>
<feColorMatrix type="matrix" values="0 0 0 0 0.0784314 0 0 0 0 0.0745098 0 0 0 0 0.0745098 0 0 0 0.15 0"/>
<feBlend mode="normal" in2="BackgroundImageFix" result="effect1_dropShadow_278_10925"/>
<feBlend mode="normal" in="SourceGraphic" in2="effect1_dropShadow_278_10925" result="shape"/>
</filter>
<filter id="filter4_d_278_10925" x="73.5" y="49.5" width="150" height="7" filterUnits="userSpaceOnUse" color-interpolation-filters="sRGB">
<feFlood flood-opacity="0" result="BackgroundImageFix"/>
<feColorMatrix in="SourceAlpha" type="matrix" values="0 0 0 0 0 0 0 0 0 0 0 0 0 0 0 0 0 0 127 0" result="hardAlpha"/>
<feMorphology radius="0.5" operator="dilate" in="SourceAlpha" result="effect1_dropShadow_278_10925"/>
<feOffset dy="1"/>
<feGaussianBlur stdDeviation="1"/>
<feComposite in2="hardAlpha" operator="out"/>
<feColorMatrix type="matrix" values="0 0 0 0 0.0784314 0 0 0 0 0.0745098 0 0 0 0 0.0745098 0 0 0 0.15 0"/>
<feBlend mode="normal" in2="BackgroundImageFix" result="effect1_dropShadow_278_10925"/>
<feBlend mode="normal" in="SourceGraphic" in2="effect1_dropShadow_278_10925" result="shape"/>
</filter>
</defs>
</svg>
