<svg width="149" height="125" viewBox="0 0 149 125" fill="none" xmlns="http://www.w3.org/2000/svg">
<g clip-path="url(#clip0_278_11972)">
<path d="M137.919 15.2598H135.62V12.9598H137.919V15.2598Z" fill="white"/>
<path d="M137.821 32.0137H135.731V29.9236H137.821V32.0137Z" fill="white"/>
<path d="M137.703 48.7598H135.833V46.8898H137.703V48.7598Z" fill="white"/>
<path d="M124.243 15.2402H121.943V12.9402H124.243V15.2402Z" fill="white"/>
<path d="M124.145 31.9863H122.055V29.8964H124.145V31.9863Z" fill="white"/>
<path d="M124.03 48.7383H122.16V46.8683H124.03V48.7383Z" fill="white"/>
<path d="M110.56 15.2168H108.26V12.9168H110.56V15.2168Z" fill="white"/>
<path d="M110.483 31.9844H108.393V29.8943H110.483V31.9844Z" fill="white"/>
<path d="M110.346 48.7012H108.476V46.8312H110.346V48.7012Z" fill="white"/>
<path d="M96.9045 15.209H94.6045V12.909H96.9045V15.209Z" fill="white"/>
<path d="M96.8204 31.9844H94.7305V29.8944H96.8204V31.9844Z" fill="white"/>
<path d="M96.6841 48.7012H94.8141V46.8312H96.6841V48.7012Z" fill="white"/>
</g>
<defs>
<clipPath id="clip0_278_11972">
<rect width="241.68" height="241.68" fill="white" transform="matrix(0.707107 -0.707107 -0.707107 -0.707107 170.894 124.787)"/>
</clipPath>
</defs>
</svg>
