<svg fill="none" height="25" viewBox="0 0 19 25" width="19" xmlns="http://www.w3.org/2000/svg"><path d="m.769964.869141c-.2039.000334-.39919.079186-.543499.219139-.1443124.13995-.22577044.3298-.22645819.528v22.49982c-.00086105.1992.07990669.3906.22439119.5317.144313.1413.340639.221.54557.2213h17.455632c.2056.0009.4031-.0783.5484-.2196.1456-.1415.2269-.3333.226-.5334v-22.49982c-.0007-.19905-.0828-.38939-.228-.5295-.1454-.140116-.3419-.218467-.5465-.217627zm.774426 1.499989h15.91261v20.99987h-15.91261zm5.18809 3.18311c-.17548-.00134-.34597.05558-.48376.16105l-1.93636 1.43403-.3601-.43795c-.17135-.2096-.44448-.31474-.71694-.27606-.27244.03884-.50302.21562-.6053.46422-.1023.24861-.06062.53134.10918.74194l.83178 1.01952c.1252.15419.3074.25447.5077.27941.20029.02494.40263-.02746.56365-.14598l2.54511-1.88823c.17428-.12589.28587-.31724.30757-.52735.02153-.20993-.04891-.41903-.19391-.57604-.14517-.15704-.35165-.24722-.56862-.24856zm1.98751.94769c-.27123.01942-.51215.17612-.63392.41267-.12192.23638-.10694.51762.03944.74061.14621.22282.40246.35457.67439.3467h6.8457c.2076.00452.4084-.07249.5568-.21362.1483-.14112.232-.33448.232-.53639 0-.2019-.0837-.39526-.232-.5364-.1484-.14113-.3492-.21813-.5568-.21361h-6.8457c-.02669-.00134-.05339-.0013-.07991.00004zm-1.98751 4.67267c-.17531-.0017-.3458.0548-.48376.1597l-1.93636 1.4399-.3601-.4423c-.17135-.2095-.44448-.3147-.71694-.276-.27244.0388-.50302.2156-.6053.4642-.1023.2486-.06062.5314.10918.742l.83178 1.018c.1252.1542.3074.2544.5077.2794.20029.0249.40263-.0275.56365-.146l2.54511-1.8824c.17686-.125.2907-.3172.31326-.5288.02273-.2114-.04805-.4222-.19461-.5801-.14655-.1578-.35506-.2477-.57361-.2476zm1.98751.9464c-.27123.0194-.51215.1761-.63392.4126-.12192.2364-.10694.5177.03944.7407.14621.2228.40246.3545.67439.3467h6.8457c.2076.0045.4084-.0725.5568-.2137.1485-.1411.232-.3344.232-.5364 0-.2019-.0835-.3952-.232-.5363-.1484-.1412-.3492-.2182-.5568-.2137h-6.8457c-.02669-.0013-.05339-.0013-.07991.0001zm-1.98751 4.6727c-.17548-.0012-.34597.0555-.48376.1612l-1.93636 1.4383-.3601-.4422c-.17135-.2096-.44448-.3148-.71694-.2761-.27244.0388-.50302.2156-.6053.4642-.1023.2486-.06062.5312.10918.742l.83178 1.018c.1252.1542.3074.2545.5077.2794.20029.0249.40263-.0275.56365-.146l2.54511-1.8823c.17686-.1251.2907-.3173.31326-.5289.02273-.2114-.04805-.4222-.19461-.5801-.14655-.1578-.35506-.2477-.57361-.2475zm2.06744.9463c-.20769-.0045-.40832.0725-.55677.2136-.14845.1412-.23214.3345-.23214.5364s.08369.3953.23214.5364c.14845.1412.34908.2182.55677.2137h6.84578c.2075.0045.4083-.0725.5567-.2137.1483-.1411.232-.3344.232-.5364 0-.2019-.0837-.3952-.232-.5364-.1484-.1411-.3492-.2181-.5567-.2136z" fill="#fff"/></svg>