<svg fill="none" height="32" viewBox="0 0 32 32" width="32" xmlns="http://www.w3.org/2000/svg"><path d="m16 0c-4.2435 0-8.3132 1.68568-11.31385 4.68615-3.00047 3.00065-4.68615 7.07035-4.68615 11.31385s1.68568 8.3132 4.68615 11.3139c3.00065 3.0004 7.07035 4.6861 11.31385 4.6861s8.3132-1.6857 11.3139-4.6861c3.0004-3.0007 4.6861-7.0704 4.6861-11.3139 0-2.8085-.7393-5.5676-2.1435-7.99991-1.4043-2.43234-3.4241-4.45209-5.8564-5.85636-2.4323-1.404264-5.1914-2.14354713-7.9999-2.14354713zm4.2666 14.3041-3.1999-3.1999v13.4289h-2.1334v-13.4289l-3.1999 3.1999-1.5041-1.504 5.7707-5.77066 5.7707 5.77066z" fill="#c5c7d3"/></svg>